<svg width="33" height="41" viewBox="0 0 33 41" fill="none" xmlns="http://www.w3.org/2000/svg">
<path d="M19.4228 30.727C24.7978 25.3305 25.2883 17.8006 21.6508 12.9316C19.523 10.0828 16.7553 8.54248 13.1452 9.03888C10.0438 9.4641 7.85948 11.3 6.31698 13.9609C5.6843 15.0522 5.22665 16.2147 4.94769 17.4448C4.71613 18.4594 5.08261 19.1894 5.8958 19.3975C6.77462 19.622 7.44559 19.1584 7.71726 18.1255C8.21502 16.2275 9.02274 14.5102 10.5962 13.2582C13.2856 11.1194 16.4508 11.3749 18.7846 13.9006C22.1559 17.5524 22.0137 24.1205 18.4911 27.619C15.8236 30.2689 11.8671 29.9787 9.56972 26.9912C8.5341 25.6426 7.92512 24.1297 7.58599 22.4781C7.37631 21.4524 6.50296 20.9505 5.64966 21.3155C5.05709 21.5674 4.68879 22.0455 4.77083 22.6879C5.23577 26.3178 7.43101 30.3328 11.3802 31.7709C14.8755 33.0429 17.9514 32.1669 19.4264 30.7325L19.4228 30.727Z" fill="#1447E6"/>
<path d="M23.7245 8.3348C17.901 2.50033 8.84835 2.98761 3.89266 9.51922C-0.771304 15.6658 -1.11591 22.2813 2.1733 29.167C2.37204 29.5849 2.62183 29.9882 2.90444 30.355C3.39855 30.9938 4.15339 31.1361 4.76054 30.7565C5.43516 30.3331 5.66672 29.5959 5.28018 28.8549C4.86265 28.0556 4.39771 27.2836 4.05129 26.4459C1.77218 20.9473 3.02478 14.1766 7.06518 10.2036C11.6817 5.66303 18.9074 6.29265 22.7254 11.5376C23.7847 12.9922 24.5778 14.5598 25.1266 16.2644C25.4676 17.321 26.144 17.7663 26.9773 17.5108C27.8123 17.2553 28.1606 16.4797 27.8506 15.4358C27.052 12.7367 25.7156 10.3441 23.7245 8.33663V8.3348Z" fill="#0BB4BB"/>
<path d="M27.379 5.85065C20.4049 -1.11714 10.9548 -1.81246 3.85128 3.50372C3.41004 3.83404 3.00527 4.21911 2.62603 4.61878C2.04076 5.2338 2.0207 5.91817 2.51846 6.49669C3.01439 7.07156 3.72 7.19201 4.40373 6.74306C4.95984 6.37624 5.44483 5.90357 5.99364 5.52397C11.6021 1.64041 18.2844 1.89956 23.5318 6.24119C27.6798 9.67216 29.6471 14.2072 30.01 19.4979C30.1212 21.1276 30.03 22.7555 29.7091 24.3687C29.4812 25.513 29.9133 26.2302 30.8159 26.389C31.6564 26.5368 32.3383 25.993 32.5188 24.9235C33.7951 17.3955 31.9153 10.7927 27.3771 5.85065H27.379Z" fill="#1447E6"/>
<path d="M23.7386 32.9701C27.0642 29.4023 28.6177 25.2541 28.5757 20.4946C28.5666 19.427 28.0105 18.7864 27.1299 18.7955C26.2456 18.8046 25.7059 19.427 25.7168 20.5292C25.746 23.7467 24.8672 26.6794 23.0366 29.3256C20.4348 33.0869 16.192 34.8243 12.0349 33.837C10.7002 33.5195 9.56434 32.784 8.39014 32.127C7.58607 31.6762 6.80388 31.7529 6.34988 32.3624C5.85759 33.0231 5.99617 33.8023 6.72183 34.4411C6.83123 34.5378 6.94427 34.629 7.06461 34.7093C8.96447 35.9759 11.0321 36.7844 13.3221 36.9523C17.4537 37.2534 20.8833 35.7113 23.7367 32.9683L23.7386 32.9701Z" fill="#0BB4BB"/>
<path d="M10.8685 15.1505C9.1528 17.2182 8.76991 20.1054 9.51199 23.2188C9.74354 24.1878 10.152 25.0821 10.7372 25.9015C12.6717 28.6098 16.0594 28.6006 17.9629 25.8632C20.5812 22.0873 18.3476 20.5963 16.7595 22.2132C16.4678 22.5107 16.2527 22.8775 16.1086 23.268C15.7896 24.1313 15.3793 25.0273 14.3145 24.9817C13.2242 24.9343 12.7374 23.8812 12.4219 22.925C11.8148 21.0817 11.8586 19.2549 12.783 17.5048C13.3682 16.3952 13.8514 16.1762 15.0931 16.4061C15.9172 16.5576 16.579 16.1835 16.8088 15.4334C17.0239 14.7344 16.714 14.0793 15.9919 13.7124C14.4804 12.9441 12.6772 13.3292 10.8685 15.1487V15.1505Z" fill="#0BB4BB"/>
<path d="M30.5065 28.771C29.7389 28.0045 28.6596 28.2363 28.1053 29.2784C27.2009 30.9847 26.1288 32.5579 24.765 33.9357C22.9053 35.8136 20.7374 37.1605 18.2048 37.916C18.0371 37.9653 17.8693 38.0109 17.7053 38.073C16.9395 38.3686 16.5803 38.98 16.7444 39.7027C16.9158 40.4582 17.5667 40.9345 18.3799 40.794C19.5905 40.5841 20.7337 40.1315 21.8241 39.5822C25.7806 37.5912 28.6541 34.5234 30.6396 30.5905C30.9715 29.9317 30.9861 29.3094 30.5047 28.7692L30.5065 28.771Z" fill="#1447E6"/>
</svg>
