<svg width="184" height="35" viewBox="0 0 184 35" fill="none" xmlns="http://www.w3.org/2000/svg">
<path d="M22.5906 24.9246C26.4585 21.0413 26.8115 15.6227 24.1939 12.1189C22.6628 10.0689 20.6711 8.96053 18.0733 9.31774C15.8415 9.62373 14.2696 10.9449 13.1597 12.8596C12.7044 13.6449 12.3751 14.4815 12.1743 15.3666C12.0077 16.0968 12.2714 16.6221 12.8566 16.7718C13.489 16.9334 13.9718 16.5998 14.1673 15.8565C14.5255 14.4907 15.1067 13.2549 16.239 12.354C18.1743 10.8149 20.452 10.9987 22.1314 12.8163C24.5574 15.4441 24.455 20.1706 21.9202 22.6881C20.0007 24.595 17.1535 24.3861 15.5003 22.2363C14.7551 21.2658 14.3169 20.1771 14.0728 18.9886C13.922 18.2506 13.2935 17.8894 12.6794 18.1521C12.253 18.3333 11.988 18.6774 12.047 19.1396C12.3816 21.7517 13.9613 24.6409 16.8032 25.6758C19.3184 26.5911 21.5318 25.9607 22.5933 24.9285L22.5906 24.9246Z" fill="#124FA6"/>
<path d="M25.6862 8.81134C21.4955 4.61284 14.9812 4.96348 11.4151 9.66365C8.05888 14.0867 7.8109 18.8473 10.1778 23.8023C10.3208 24.103 10.5006 24.3932 10.704 24.6572C11.0595 25.1168 11.6027 25.2193 12.0396 24.9461C12.5251 24.6414 12.6917 24.1109 12.4136 23.5777C12.1131 23.0025 11.7785 22.447 11.5292 21.8442C9.88918 17.8873 10.7906 13.0151 13.698 10.1561C17.0201 6.88872 22.2198 7.3418 24.9672 11.1161C25.7295 12.1628 26.3002 13.2909 26.6951 14.5175C26.9405 15.2779 27.4273 15.5983 28.0269 15.4144C28.6278 15.2306 28.8784 14.6724 28.6553 13.9213C28.0807 11.9789 27.1189 10.2572 25.6862 8.81266V8.81134Z" fill="#3CC5C1"/>
<path d="M28.3159 7.02363C23.2974 2.00958 16.497 1.50922 11.3853 5.33477C11.0678 5.57247 10.7765 5.84957 10.5036 6.13717C10.0824 6.57974 10.068 7.07222 10.4262 7.48852C10.7831 7.9022 11.2908 7.98887 11.7829 7.66581C12.183 7.40184 12.532 7.06171 12.927 6.78855C16.9628 3.99392 21.7714 4.18041 25.5475 7.30466C28.5324 9.7736 29.9481 13.0371 30.2092 16.8442C30.2892 18.017 30.2236 19.1884 29.9927 20.3493C29.8287 21.1727 30.1397 21.6889 30.7891 21.8031C31.394 21.9095 31.8847 21.5181 32.0146 20.7486C32.933 15.3313 31.5803 10.5799 28.3146 7.02363H28.3159Z" fill="#124FA6"/>
<path d="M25.6963 26.5386C28.0894 23.9711 29.2073 20.9861 29.1771 17.5611C29.1706 16.7928 28.7704 16.3319 28.1367 16.3384C27.5003 16.345 27.112 16.7928 27.1198 17.586C27.1408 19.9013 26.5084 22.0117 25.1911 23.916C23.3188 26.6226 20.2657 27.8728 17.2743 27.1624C16.3138 26.9339 15.4964 26.4046 14.6515 25.9318C14.0729 25.6075 13.51 25.6626 13.1833 26.1013C12.829 26.5767 12.9288 27.1374 13.451 27.5971C13.5297 27.6667 13.611 27.7323 13.6976 27.7901C15.0648 28.7015 16.5526 29.2833 18.2006 29.4041C21.1736 29.6208 23.6416 28.5111 25.695 26.5373L25.6963 26.5386Z" fill="#3CC5C1"/>
<path d="M16.4349 13.7161C15.2003 15.2041 14.9248 17.2817 15.4588 19.5221C15.6254 20.2194 15.9193 20.8629 16.3405 21.4526C17.7325 23.4015 20.1703 23.3949 21.5401 21.425C23.4242 18.7079 21.8169 17.6349 20.6741 18.7985C20.4642 19.0125 20.3094 19.2765 20.2057 19.5575C19.9761 20.1787 19.6809 20.8235 18.9147 20.7907C18.1301 20.7565 17.7798 19.9988 17.5528 19.3106C17.1159 17.9842 17.1474 16.6697 17.8126 15.4102C18.2337 14.6118 18.5814 14.4542 19.4749 14.6197C20.068 14.7287 20.5442 14.4594 20.7096 13.9197C20.8644 13.4167 20.6413 12.9452 20.1218 12.6813C19.0341 12.1284 17.7365 12.4055 16.4349 13.7148V13.7161Z" fill="#3CC5C1"/>
<path d="M30.5665 23.5171C30.0142 22.9656 29.2374 23.1324 28.8386 23.8822C28.1878 25.1101 27.4163 26.2422 26.4349 27.2337C25.0966 28.585 23.5366 29.5542 21.7142 30.0979C21.5935 30.1334 21.4728 30.1662 21.3547 30.2109C20.8036 30.4236 20.5452 30.8635 20.6632 31.3836C20.7866 31.9273 21.255 32.2701 21.8401 32.1689C22.7113 32.0179 23.534 31.6922 24.3186 31.2969C27.1657 29.8641 29.2335 27.6566 30.6623 24.8265C30.9011 24.3524 30.9116 23.9046 30.5652 23.5158L30.5665 23.5171Z" fill="#124FA6"/>
<path d="M57.684 20.8513V25.1631C56.1702 26.7449 54.0611 27.5358 51.3567 27.5358C48.6523 27.5358 46.3987 26.6343 44.5958 24.8314C42.8098 23.0114 41.9169 20.5877 41.9169 17.5601C41.9169 14.5155 42.8268 12.1003 44.6468 10.3144C46.4667 8.51145 48.7204 7.60998 51.4078 7.60998C54.1122 7.60998 56.2043 8.31585 57.684 9.72757V13.8607H56.3573L55.1072 9.80411C54.1717 8.97068 52.9386 8.55397 51.4078 8.55397C49.4688 8.55397 47.8955 9.32787 46.6878 10.8757C45.4802 12.4065 44.8764 14.5921 44.8764 17.4326C44.8764 20.256 45.4547 22.4757 46.6113 24.0915C47.7849 25.7073 49.3497 26.5152 51.3057 26.5152C52.8875 26.5152 54.1887 26.039 55.2092 25.0865L56.4849 20.8513H57.684ZM60.4857 7.86511H68.2417V8.8091L65.9965 9.34488L70.844 17.6622L75.3088 9.42142L73.0892 8.78359V7.86511H79.3399V8.78359L77.0692 9.47244L71.4053 18.8103V25.4692L74.0332 26.056V27H66.2772V26.056L68.7264 25.4947V19.1675L62.9349 9.44693L60.4857 8.8091V7.86511ZM82.3971 7.86511H89.1836C90.9185 7.86511 92.4408 8.0267 93.7505 8.34986C95.0602 8.65602 96.2253 9.17479 97.2458 9.90617C98.2833 10.6205 99.0657 11.6156 99.593 12.8912C100.137 14.1669 100.409 15.7147 100.409 17.5346C100.409 19.3545 100.137 20.8938 99.593 22.1525C99.0487 23.4111 98.2408 24.3892 97.1693 25.0865C96.0977 25.7669 94.8816 26.2601 93.5209 26.5663C92.1772 26.8554 90.5783 27 88.7244 27H82.3971V26.056L84.9229 25.4692V9.42142L82.3971 8.8091V7.86511ZM87.6018 25.9284H88.852C91.7945 25.9284 93.9631 25.2991 95.3578 24.0405C96.7525 22.7818 97.4499 20.6217 97.4499 17.5601C97.4499 14.4815 96.7951 12.2789 95.4854 10.9522C94.1757 9.60851 92.1091 8.93667 89.2857 8.93667H87.6018V25.9284ZM104.248 7.86511H118.306V12.432H116.979L115.984 8.96218H109.452V16.5906H114.376L115.065 14.371H116.009V19.6522H115.065L114.376 17.7132H109.452V25.9029H116.443L117.438 22.4587H118.79V27H104.248V26.056L106.774 25.4692V9.42142L104.248 8.8091V7.86511ZM135.711 7.86511H141.987V8.8091L139.486 9.44693V27H137.701L125.76 9.49796V25.4947L128.261 26.056V27H122.112V26.056L124.485 25.4947V9.47244L122.112 8.8091V7.86511H127.801L138.211 22.9689V9.47244L135.711 8.8091V7.86511ZM149.564 27V26.056L152.039 25.4692V8.96218H147.37L146.375 12.6871H145.048V7.86511H161.785V12.6871H160.458L159.463 8.96218H154.717V25.4947L157.32 26.056V27H149.564ZM164.842 7.86511H172.598V8.8091L170.046 9.3959V25.4947L172.598 26.056V27H164.842V26.056L167.367 25.4692V9.42142L164.842 8.8091V7.86511Z" fill="#124FA6"/>
</svg>
