<svg width="182" height="35" viewBox="0 0 182 35" fill="none" xmlns="http://www.w3.org/2000/svg">
<path d="M21.5906 24.9246C25.4585 21.0413 25.8115 15.6227 23.1939 12.1189C21.6628 10.0689 19.6711 8.96053 17.0732 9.31774C14.8415 9.62373 13.2696 10.9449 12.1596 12.8596C11.7044 13.6449 11.375 14.4815 11.1743 15.3666C11.0077 16.0968 11.2714 16.6221 11.8566 16.7718C12.489 16.9334 12.9718 16.5998 13.1673 15.8565C13.5255 14.4907 14.1067 13.2549 15.239 12.354C17.1743 10.8149 19.452 10.9987 21.1314 12.8163C23.5574 15.4441 23.455 20.1706 20.9202 22.6881C19.0006 24.595 16.1535 24.3861 14.5003 22.2363C13.7551 21.2658 13.3169 20.1771 13.0728 18.9886C12.9219 18.2506 12.2935 17.8894 11.6794 18.1521C11.253 18.3333 10.988 18.6774 11.047 19.1396C11.3816 21.7517 12.9613 24.6409 15.8032 25.6758C18.3184 26.5911 20.5318 25.9607 21.5932 24.9285L21.5906 24.9246Z" fill="#124FA6"/>
<path d="M24.6862 8.81134C20.4955 4.61284 13.9812 4.96348 10.4151 9.66365C7.05888 14.0867 6.8109 18.8473 9.17783 23.8023C9.32084 24.103 9.50059 24.3932 9.70396 24.6572C10.0595 25.1168 10.6027 25.2193 11.0396 24.9461C11.5251 24.6414 11.6917 24.1109 11.4136 23.5777C11.1131 23.0025 10.7785 22.447 10.5292 21.8442C8.88918 17.8873 9.79056 13.0151 12.698 10.1561C16.0201 6.88872 21.2198 7.3418 23.9672 11.1161C24.7295 12.1628 25.3002 13.2909 25.6951 14.5175C25.9405 15.2779 26.4273 15.5983 27.0269 15.4144C27.6278 15.2306 27.8784 14.6724 27.6553 13.9213C27.0807 11.9789 26.1189 10.2572 24.6862 8.81266V8.81134Z" fill="#124FA6"/>
<path d="M27.3159 7.02363C22.2974 2.00958 15.497 1.50922 10.3853 5.33477C10.0678 5.57247 9.77653 5.84957 9.50362 6.13717C9.08246 6.57974 9.06803 7.07222 9.42621 7.48852C9.78309 7.9022 10.2909 7.98887 10.7829 7.66581C11.183 7.40184 11.532 7.06171 11.927 6.78855C15.9628 3.99392 20.7715 4.18041 24.5475 7.30466C27.5324 9.7736 28.9481 13.0371 29.2092 16.8442C29.2892 18.017 29.2236 19.1884 28.9927 20.3493C28.8287 21.1727 29.1397 21.6889 29.7891 21.8031C30.394 21.9095 30.8847 21.5181 31.0146 20.7486C31.933 15.3313 30.5803 10.5799 27.3146 7.02363H27.3159Z" fill="#124FA6"/>
<path d="M24.6963 26.5386C27.0894 23.9711 28.2073 20.9861 28.1771 17.5611C28.1706 16.7928 27.7704 16.3319 27.1367 16.3384C26.5003 16.345 26.112 16.7928 26.1198 17.586C26.1408 19.9013 25.5084 22.0117 24.1911 23.916C22.3189 26.6226 19.2657 27.8728 16.2743 27.1624C15.3138 26.9339 14.4964 26.4046 13.6515 25.9318C13.0729 25.6075 12.51 25.6626 12.1833 26.1013C11.8291 26.5767 11.9288 27.1374 12.451 27.5971C12.5297 27.6667 12.611 27.7323 12.6976 27.7901C14.0648 28.7015 15.5526 29.2833 17.2006 29.4041C20.1737 29.6208 22.6416 28.5111 24.695 26.5373L24.6963 26.5386Z" fill="#124FA6"/>
<path d="M15.4349 13.7161C14.2003 15.2041 13.9248 17.2817 14.4588 19.5221C14.6254 20.2194 14.9193 20.8629 15.3405 21.4526C16.7325 23.4015 19.1703 23.3949 20.5401 21.425C22.4242 18.7079 20.8169 17.6349 19.6741 18.7985C19.4642 19.0125 19.3094 19.2765 19.2057 19.5575C18.9761 20.1787 18.6809 20.8235 17.9147 20.7907C17.1301 20.7565 16.7798 19.9988 16.5528 19.3106C16.1159 17.9842 16.1474 16.6697 16.8126 15.4102C17.2337 14.6118 17.5814 14.4542 18.4749 14.6197C19.068 14.7287 19.5443 14.4594 19.7096 13.9197C19.8644 13.4167 19.6413 12.9452 19.1218 12.6813C18.0341 12.1284 16.7365 12.4055 15.4349 13.7148V13.7161Z" fill="#124FA6"/>
<path d="M29.5665 23.5171C29.0142 22.9656 28.2374 23.1324 27.8386 23.8822C27.1878 25.1101 26.4163 26.2422 25.4349 27.2337C24.0966 28.585 22.5366 29.5542 20.7142 30.0979C20.5935 30.1334 20.4728 30.1662 20.3547 30.2109C19.8036 30.4236 19.5452 30.8635 19.6632 31.3836C19.7866 31.9273 20.255 32.2701 20.8401 32.1689C21.7113 32.0179 22.534 31.6922 23.3186 31.2969C26.1657 29.8641 28.2335 27.6566 29.6623 24.8265C29.9011 24.3524 29.9116 23.9046 29.5652 23.5158L29.5665 23.5171Z" fill="#124FA6"/>
<path d="M56.684 20.8513V25.1631C55.1702 26.7449 53.0611 27.5358 50.3567 27.5358C47.6523 27.5358 45.3987 26.6343 43.5958 24.8314C41.8098 23.0114 40.9169 20.5877 40.9169 17.5601C40.9169 14.5155 41.8268 12.1003 43.6468 10.3144C45.4667 8.51145 47.7204 7.60998 50.4078 7.60998C53.1122 7.60998 55.2043 8.31585 56.684 9.72757V13.8607H55.3573L54.1072 9.80411C53.1717 8.97068 51.9386 8.55397 50.4078 8.55397C48.4688 8.55397 46.8955 9.32787 45.6878 10.8757C44.4802 12.4065 43.8764 14.5921 43.8764 17.4326C43.8764 20.256 44.4547 22.4757 45.6113 24.0915C46.7849 25.7073 48.3497 26.5152 50.3057 26.5152C51.8875 26.5152 53.1887 26.039 54.2092 25.0865L55.4849 20.8513H56.684ZM59.4857 7.86511H67.2417V8.8091L64.9965 9.34488L69.844 17.6622L74.3088 9.42142L72.0892 8.78359V7.86511H78.3399V8.78359L76.0692 9.47244L70.4053 18.8103V25.4692L73.0332 26.056V27H65.2772V26.056L67.7264 25.4947V19.1675L61.9349 9.44693L59.4857 8.8091V7.86511ZM81.3971 7.86511H88.1836C89.9185 7.86511 91.4408 8.0267 92.7505 8.34986C94.0602 8.65602 95.2253 9.17479 96.2458 9.90617C97.2833 10.6205 98.0657 11.6156 98.593 12.8912C99.1373 14.1669 99.4094 15.7147 99.4094 17.5346C99.4094 19.3545 99.1373 20.8938 98.593 22.1525C98.0487 23.4111 97.2408 24.3892 96.1693 25.0865C95.0977 25.7669 93.8816 26.2601 92.5209 26.5663C91.1772 26.8554 89.5783 27 87.7244 27H81.3971V26.056L83.9229 25.4692V9.42142L81.3971 8.8091V7.86511ZM86.6018 25.9284H87.852C90.7945 25.9284 92.9631 25.2991 94.3578 24.0405C95.7525 22.7818 96.4499 20.6217 96.4499 17.5601C96.4499 14.4815 95.7951 12.2789 94.4854 10.9522C93.1757 9.60851 91.1091 8.93667 88.2857 8.93667H86.6018V25.9284ZM103.248 7.86511H117.306V12.432H115.979L114.984 8.96218H108.452V16.5906H113.376L114.065 14.371H115.009V19.6522H114.065L113.376 17.7132H108.452V25.9029H115.443L116.438 22.4587H117.79V27H103.248V26.056L105.774 25.4692V9.42142L103.248 8.8091V7.86511ZM134.711 7.86511H140.987V8.8091L138.486 9.44693V27H136.701L124.76 9.49796V25.4947L127.261 26.056V27H121.112V26.056L123.485 25.4947V9.47244L121.112 8.8091V7.86511H126.801L137.211 22.9689V9.47244L134.711 8.8091V7.86511ZM148.564 27V26.056L151.039 25.4692V8.96218H146.37L145.375 12.6871H144.048V7.86511H160.785V12.6871H159.458L158.463 8.96218H153.717V25.4947L156.32 26.056V27H148.564ZM163.842 7.86511H171.598V8.8091L169.046 9.3959V25.4947L171.598 26.056V27H163.842V26.056L166.367 25.4692V9.42142L163.842 8.8091V7.86511Z" fill="#124FA6"/>
</svg>
