<svg width="176" height="50" viewBox="0 0 176 50" fill="none" xmlns="http://www.w3.org/2000/svg">
<g clip-path="url(#clip0_3872_4102)">
<path d="M19.4228 35.3178C24.7978 29.9213 25.2883 22.3914 21.6508 17.5224C19.5231 14.6736 16.7553 13.1333 13.1452 13.6297C10.0438 14.0549 7.85949 15.8909 6.31699 18.5517C5.68431 19.643 5.22667 20.8055 4.94771 22.0356C4.71615 23.0503 5.08263 23.7803 5.89582 23.9883C6.77464 24.2128 7.44561 23.7492 7.71728 22.7163C8.21504 20.8183 9.02275 19.101 10.5962 17.8491C13.2856 15.7102 16.4508 15.9657 18.7846 18.4915C22.1559 22.1432 22.0137 28.7114 18.4911 32.2099C15.8236 34.8597 11.8671 34.5696 9.56974 31.5821C8.53411 30.2334 7.92513 28.7205 7.586 27.0689C7.37633 26.0432 6.50297 25.5414 5.64967 25.9064C5.05711 26.1582 4.6888 26.6364 4.77085 27.2787C5.23579 30.9086 7.43103 34.9236 11.3803 36.3617C14.8755 37.6337 17.9514 36.7577 19.4264 35.3233L19.4228 35.3178Z" fill="#1447E6"/>
<path d="M23.7245 12.9256C17.9009 7.09115 8.84834 7.57843 3.89265 14.11C-0.77132 20.2566 -1.11592 26.8721 2.17329 33.7578C2.37202 34.1757 2.62181 34.579 2.90442 34.9459C3.39853 35.5846 4.15337 35.727 4.76053 35.3474C5.43514 34.924 5.6667 34.1867 5.28016 33.4457C4.86263 32.6464 4.3977 31.8744 4.05127 31.0368C1.77216 25.5381 3.02476 18.7674 7.06516 14.7944C11.6817 10.2539 18.9074 10.8835 22.7254 16.1285C23.7847 17.583 24.5778 19.1506 25.1266 20.8552C25.4676 21.9118 26.144 22.3571 26.9773 22.1016C27.8123 21.8461 28.1606 21.0705 27.8506 20.0266C27.052 17.3275 25.7156 14.9349 23.7245 12.9274V12.9256Z" fill="#0BB4BB"/>
<path d="M27.379 10.4415C20.4049 3.47368 10.9548 2.77836 3.85129 8.09454C3.41005 8.42486 3.00528 8.80993 2.62604 9.2096C2.04076 9.82462 2.02071 10.509 2.51847 11.0875C3.0144 11.6624 3.72001 11.7828 4.40374 11.3339C4.95984 10.9671 5.44484 10.4944 5.99365 10.1148C11.6021 6.23123 18.2844 6.49038 23.5318 10.832C27.6798 14.263 29.6471 18.7981 30.01 24.0887C30.1212 25.7184 30.03 27.3463 29.7091 28.9596C29.4812 30.1038 29.9133 30.8211 30.8159 30.9798C31.6564 31.1277 32.3383 30.5838 32.5188 29.5144C33.7951 21.9863 31.9153 15.3835 27.3772 10.4415H27.379Z" fill="#1447E6"/>
<path d="M23.7386 37.561C27.0642 33.9931 28.6177 29.8449 28.5757 25.0854C28.5666 24.0178 28.0105 23.3772 27.1299 23.3863C26.2456 23.3955 25.7059 24.0178 25.7168 25.1201C25.746 28.3375 24.8672 31.2702 23.0366 33.9165C20.4348 37.6778 16.192 39.4151 12.0349 38.4278C10.7002 38.1103 9.56434 37.3748 8.39014 36.7178C7.58607 36.2671 6.80388 36.3437 6.34988 36.9532C5.85759 37.6139 5.99617 38.3932 6.72183 39.0319C6.83123 39.1286 6.94427 39.2199 7.06461 39.3002C8.96447 40.5667 11.0321 41.3752 13.3221 41.5431C17.4537 41.8442 20.8833 40.3021 23.7367 37.5591L23.7386 37.561Z" fill="#0BB4BB"/>
<path d="M10.8685 19.7413C9.15278 21.809 8.76989 24.6962 9.51197 27.8096C9.74353 28.7787 10.1519 29.6729 10.7372 30.4923C12.6717 33.2006 16.0594 33.1915 17.9629 30.454C20.5811 26.6781 18.3476 25.1871 16.7595 26.804C16.4678 27.1015 16.2527 27.4683 16.1086 27.8589C15.7895 28.7221 15.3793 29.6181 14.3145 29.5725C13.2242 29.5251 12.7374 28.4721 12.4219 27.5158C11.8148 25.6725 11.8585 23.8457 12.7829 22.0956C13.3682 20.986 13.8514 20.767 15.0931 20.9969C15.9172 21.1484 16.579 20.7743 16.8088 20.0242C17.0239 19.3252 16.714 18.6701 15.9919 18.3033C14.4804 17.5349 12.6772 17.92 10.8685 19.7395V19.7413Z" fill="#0BB4BB"/>
<path d="M30.5065 33.3618C29.7389 32.5953 28.6596 32.8271 28.1053 33.8692C27.2009 35.5755 26.1288 37.1487 24.765 38.5265C22.9053 40.4044 20.7374 41.7513 18.2048 42.5068C18.0371 42.5561 17.8693 42.6017 17.7053 42.6638C16.9395 42.9594 16.5803 43.5708 16.7444 44.2935C16.9158 45.049 17.5667 45.5253 18.3799 45.3848C19.5905 45.175 20.7337 44.7224 21.8241 44.173C25.7806 42.182 28.6541 39.1142 30.6396 35.1813C30.9715 34.5225 30.9861 33.9002 30.5047 33.36L30.5065 33.3618Z" fill="#1447E6"/>
<path d="M58.2979 20.8513V25.1631C56.7842 26.7449 54.6751 27.5358 51.9707 27.5358C49.2663 27.5358 47.0126 26.6343 45.2097 24.8314C43.4238 23.0114 42.5308 20.5877 42.5308 17.5601C42.5308 14.5155 43.4408 12.1003 45.2607 10.3144C47.0806 8.51145 49.3343 7.60998 52.0217 7.60998C54.7261 7.60998 56.8182 8.31585 58.2979 9.72757V13.8607H56.9713L55.7211 9.80411C54.7856 8.97068 53.5525 8.55397 52.0217 8.55397C50.0827 8.55397 48.5094 9.32787 47.3018 10.8757C46.0941 12.4065 45.4903 14.5921 45.4903 17.4326C45.4903 20.256 46.0686 22.4757 47.2252 24.0915C48.3988 25.7073 49.9636 26.5152 51.9196 26.5152C53.5015 26.5152 54.8026 26.039 55.8232 25.0865L57.0988 20.8513H58.2979ZM61.0996 7.86511H68.8556V8.8091L66.6105 9.34488L71.458 17.6622L75.9228 9.42142L73.7031 8.78359V7.86511H79.9538V8.78359L77.6832 9.47244L72.0192 18.8103V25.4692L74.6471 26.056V27H66.8911V26.056L69.3404 25.4947V19.1675L63.5489 9.44693L61.0996 8.8091V7.86511ZM83.011 7.86511H89.7975C91.5324 7.86511 93.0547 8.0267 94.3644 8.34986C95.6741 8.65602 96.8392 9.17479 97.8597 9.90617C98.8973 10.6205 99.6797 11.6156 100.207 12.8912C100.751 14.1669 101.023 15.7147 101.023 17.5346C101.023 19.3545 100.751 20.8938 100.207 22.1525C99.6626 23.4111 98.8547 24.3892 97.7832 25.0865C96.7116 25.7669 95.4955 26.2601 94.1348 26.5663C92.7911 26.8554 91.1923 27 89.3383 27H83.011V26.056L85.5368 25.4692V9.42142L83.011 8.8091V7.86511ZM88.2157 25.9284H89.4659C92.4084 25.9284 94.577 25.2991 95.9717 24.0405C97.3665 22.7818 98.0638 20.6217 98.0638 17.5601C98.0638 14.4815 97.409 12.2789 96.0993 10.9522C94.7896 9.60851 92.7231 8.93667 89.8996 8.93667H88.2157V25.9284ZM104.862 7.86511H118.919V12.432H117.593L116.598 8.96218H110.066V16.5906H114.99L115.679 14.371H116.623V19.6522H115.679L114.99 17.7132H110.066V25.9029H117.057L118.052 22.4587H119.404V27H104.862V26.056L107.387 25.4692V9.42142L104.862 8.8091V7.86511ZM136.324 7.86511H142.601V8.8091L140.1 9.44693V27H138.314L126.374 9.49796V25.4947L128.875 26.056V27H122.726V26.056L125.099 25.4947V9.47244L122.726 8.8091V7.86511H128.415L138.825 22.9689V9.47244L136.324 8.8091V7.86511ZM150.178 27V26.056L152.652 25.4692V8.96218H147.984L146.989 12.6871H145.662V7.86511H162.398V12.6871H161.072L160.077 8.96218H155.331V25.4947L157.934 26.056V27H150.178ZM165.455 7.86511H173.212V8.8091L170.66 9.3959V25.4947L173.212 26.056V27H165.455V26.056L167.981 25.4692V9.42142L165.455 8.8091V7.86511Z" fill="#1447E6"/>
<path d="M48.7965 46V45.6128L49.8221 45.3721V38.8L46.9756 46H46.3372L43.4907 38.8V45.3721L44.5372 45.6128V46H41.9419V45.6128L42.9465 45.3721V38.8105L42.057 38.5384V38.1512H44.307L46.9547 44.7023L49.5291 38.1512H51.9988V38.5384L50.9105 38.7895V45.3721L51.9779 45.6128V46H48.7965ZM58.6089 46H56.767V44.943C56.4391 45.7105 55.8635 46.0942 55.0403 46.0942C54.4891 46.0942 54.0705 45.9756 53.7844 45.7384C53.4984 45.4942 53.3554 45.1558 53.3554 44.7233C53.3554 44.1093 53.624 43.6698 54.1612 43.4047C54.7054 43.1326 55.567 42.986 56.7461 42.9651V42.5151C56.7461 42.0198 56.6449 41.6849 56.4426 41.5105C56.2403 41.3291 55.9403 41.2384 55.5426 41.2384C55.1449 41.2384 54.7996 41.3291 54.5065 41.5105L54.1612 42.5465H53.774V41.364C53.9484 41.2174 54.1891 41.0953 54.4961 40.9977C54.8031 40.893 55.1379 40.8407 55.5007 40.8407C56.2403 40.8407 56.7949 40.9837 57.1647 41.2698C57.5414 41.5488 57.7298 42.0477 57.7298 42.7663V45.3721L58.6089 45.6128V46ZM55.3124 45.6547C55.7589 45.6547 56.1077 45.4837 56.3589 45.1419C56.617 44.793 56.7461 44.1895 56.7461 43.3314C55.5461 43.3314 54.8135 43.5163 54.5484 43.886C54.4228 44.0605 54.36 44.3186 54.36 44.6605C54.36 45.0023 54.4333 45.2535 54.5798 45.414C54.7333 45.5744 54.9775 45.6547 55.3124 45.6547ZM59.5511 40.9244H61.2464V45.4035L61.979 45.6128V46H59.4987V45.6128L60.2627 45.3826V41.4267L59.5511 41.3012V40.9244ZM60.8487 38.1512L62.4708 39.8674H62.0522L60.6708 39.0826L59.3731 39.8674H58.965L60.4929 38.1512H60.8487ZM64.4829 40.9244H66.0108V41.364H64.4829V44.6081C64.4829 45.0198 64.5317 45.3058 64.6294 45.4663C64.7271 45.6198 64.8841 45.6965 65.1003 45.6965C65.3166 45.6965 65.6096 45.6442 65.9794 45.5395V45.9267C65.491 46.0593 65.0934 46.1256 64.7864 46.1256C63.9352 46.1256 63.5096 45.6128 63.5096 44.5872V41.364H62.6096V40.9244H63.5096V39.8465L64.4829 39.2919V40.9244ZM66.7483 40.9244H68.4855V42.4105C68.625 41.9919 68.8413 41.643 69.1343 41.364C69.4273 41.0779 69.7832 40.9349 70.2018 40.9349C70.4599 40.9349 70.7704 41.0291 71.1332 41.2174V42.4733H70.725L70.4006 41.6151C70.268 41.5453 70.118 41.5105 69.9506 41.5105C69.6436 41.5105 69.3332 41.6919 69.0192 42.0547C68.7122 42.4105 68.5587 42.7942 68.5587 43.2058V45.393L69.3332 45.6128V46H66.7692V45.6128L67.5646 45.393V41.4477L66.7483 41.3012V40.9244ZM71.7127 40.9244H73.408V45.4035L74.1406 45.6128V46H71.6603V45.6128L72.4243 45.3826V41.4267L71.7127 41.3012V40.9244ZM72.058 38.6953C72.058 38.507 72.1173 38.3605 72.2359 38.2558C72.3615 38.1442 72.5255 38.0884 72.7278 38.0884C72.9371 38.0884 73.1045 38.1442 73.2301 38.2558C73.3557 38.3605 73.4185 38.507 73.4185 38.6953C73.4185 38.8767 73.3592 39.0233 73.2406 39.1349C73.122 39.2465 72.9545 39.3023 72.7382 39.3023C72.5289 39.3023 72.3615 39.25 72.2359 39.1453C72.1173 39.0337 72.058 38.8837 72.058 38.6953ZM79.041 44.5035C79.041 44.9709 78.8666 45.3477 78.5178 45.6337C78.1689 45.9128 77.6317 46.0523 76.9061 46.0523C76.1875 46.0523 75.6259 45.8605 75.2213 45.4767V44.2628H75.6294L75.9329 45.2884C76.1771 45.5326 76.5678 45.6547 77.105 45.6547C77.4817 45.6547 77.7678 45.5709 77.9631 45.4035C78.1585 45.236 78.2561 45.0337 78.2561 44.7965C78.2561 44.5593 78.155 44.3744 77.9527 44.2419C77.7503 44.1093 77.3492 43.9488 76.7492 43.7605C76.1561 43.5651 75.741 43.3628 75.5038 43.1535C75.2666 42.9442 75.148 42.6337 75.148 42.2221C75.148 41.8035 75.3189 41.4581 75.6608 41.186C76.0027 40.914 76.505 40.7779 77.1678 40.7779C77.8306 40.7779 78.3643 40.9349 78.7689 41.2488V42.4523H78.3608L78.0364 41.4477C77.8061 41.2663 77.4992 41.1756 77.1154 41.1756C76.355 41.1756 75.9747 41.4477 75.9747 41.9919C75.9747 42.1942 76.0829 42.3721 76.2992 42.5256C76.5224 42.6721 76.9271 42.836 77.5131 43.0174C78.0992 43.1988 78.5003 43.4047 78.7166 43.6349C78.9329 43.8581 79.041 44.1477 79.041 44.5035ZM84.5324 44.2314V45.4244C84.1347 45.8779 83.4928 46.1047 82.6068 46.1047C81.7277 46.1047 81.0754 45.8744 80.6498 45.414C80.2242 44.9465 80.0114 44.3012 80.0114 43.4779C80.0114 42.6547 80.2347 42.0093 80.6812 41.5419C81.1347 41.0674 81.7417 40.8302 82.5021 40.8302C82.9556 40.8302 83.3324 40.914 83.6324 41.0814C83.9393 41.2488 84.1591 41.4721 84.2917 41.7512C84.501 42.2116 84.6056 42.6965 84.6056 43.2058H81.0579C81.0579 43.9942 81.1486 44.5942 81.33 45.0058C81.5393 45.4733 81.951 45.707 82.5649 45.707C82.7812 45.707 82.987 45.6791 83.1824 45.6233C83.3847 45.5605 83.5312 45.5012 83.6219 45.4453C83.7126 45.3895 83.7579 45.3547 83.7579 45.3407L84.1451 44.2314H84.5324ZM82.4812 41.2384C81.8882 41.2384 81.4835 41.5105 81.2672 42.0547C81.1626 42.2988 81.0998 42.5674 81.0789 42.8605H83.6951C83.6951 41.7791 83.2905 41.2384 82.4812 41.2384ZM85.8696 40.9244H87.6068V42.4105C87.7463 41.9919 87.9626 41.643 88.2556 41.364C88.5487 41.0779 88.9045 40.9349 89.3231 40.9349C89.5812 40.9349 89.8917 41.0291 90.2545 41.2174V42.4733H89.8463L89.5219 41.6151C89.3894 41.5453 89.2394 41.5105 89.0719 41.5105C88.7649 41.5105 88.4545 41.6919 88.1405 42.0547C87.8335 42.4105 87.6801 42.7942 87.6801 43.2058V45.393L88.4545 45.6128V46H85.8905V45.6128L86.6859 45.393V41.4477L85.8696 41.3012V40.9244ZM94.247 38.1512H97.4284V38.5384L96.3924 38.7791V45.5395H99.0714L99.4796 44.0221H100.024V46H94.247V45.6128L95.2935 45.3721V38.7895L94.247 38.5384V38.1512ZM100.074 40.3174V37.6802H101.403L100.566 40.3174H100.074ZM103.016 40.9244H104.711V45.4035L105.444 45.6128V46H102.964V45.6128L103.728 45.3826V41.4267L103.016 41.3012V40.9244ZM103.361 38.6953C103.361 38.507 103.421 38.3605 103.539 38.2558C103.665 38.1442 103.829 38.0884 104.031 38.0884C104.24 38.0884 104.408 38.1442 104.533 38.2558C104.659 38.3605 104.722 38.507 104.722 38.6953C104.722 38.8767 104.663 39.0233 104.544 39.1349C104.425 39.2465 104.258 39.3023 104.042 39.3023C103.832 39.3023 103.665 39.25 103.539 39.1453C103.421 39.0337 103.361 38.8837 103.361 38.6953ZM109.643 38.1512H111.401V45.393L112.291 45.6128V46H110.47V44.807C110.219 45.6721 109.622 46.1047 108.68 46.1047C108.025 46.1047 107.494 45.8779 107.09 45.4244C106.692 44.9709 106.493 44.3291 106.493 43.4988C106.493 42.6616 106.692 42.0093 107.09 41.5419C107.494 41.0744 108.021 40.8407 108.67 40.8407C109.137 40.8407 109.525 40.9523 109.832 41.1756C110.146 41.3988 110.344 41.6919 110.428 42.0547V38.6849L109.643 38.5279V38.1512ZM108.848 41.3116C107.983 41.3116 107.55 42.0337 107.55 43.4779C107.55 44.9151 107.986 45.6337 108.858 45.6337C109.326 45.6337 109.71 45.4384 110.01 45.0477C110.316 44.657 110.47 44.1337 110.47 43.4779C110.47 42.8221 110.316 42.2988 110.01 41.9081C109.71 41.5105 109.322 41.3116 108.848 41.3116ZM117.45 44.2314V45.4244C117.053 45.8779 116.411 46.1047 115.525 46.1047C114.646 46.1047 113.993 45.8744 113.568 45.414C113.142 44.9465 112.93 44.3012 112.93 43.4779C112.93 42.6547 113.153 42.0093 113.599 41.5419C114.053 41.0674 114.66 40.8302 115.42 40.8302C115.874 40.8302 116.25 40.914 116.55 41.0814C116.857 41.2488 117.077 41.4721 117.21 41.7512C117.419 42.2116 117.524 42.6965 117.524 43.2058H113.976C113.976 43.9942 114.067 44.5942 114.248 45.0058C114.457 45.4733 114.869 45.707 115.483 45.707C115.699 45.707 115.905 45.6791 116.1 45.6233C116.303 45.5605 116.449 45.5012 116.54 45.4453C116.631 45.3895 116.676 45.3547 116.676 45.3407L117.063 44.2314H117.45ZM115.399 41.2384C114.806 41.2384 114.402 41.5105 114.185 42.0547C114.081 42.2988 114.018 42.5674 113.997 42.8605H116.613C116.613 41.7791 116.209 41.2384 115.399 41.2384ZM118.861 40.914H120.556V42.3895C120.835 41.357 121.456 40.8407 122.419 40.8407C122.984 40.8407 123.403 41.0151 123.675 41.364C123.947 41.7058 124.083 42.1802 124.083 42.7872V45.3826L124.889 45.6128V46H122.409V45.6128L123.11 45.4035V42.9128C123.11 42.3477 123.033 41.943 122.88 41.6988C122.733 41.4547 122.499 41.3326 122.178 41.3326C121.683 41.3326 121.299 41.5698 121.027 42.0442C120.762 42.5116 120.63 43.2163 120.63 44.1581V45.4035L121.362 45.6128V46H118.861V45.6128L119.635 45.393V41.4372L118.861 41.2907V40.914ZM127.447 40.9244H128.975V41.364H127.447V44.6081C127.447 45.0198 127.496 45.3058 127.594 45.4663C127.692 45.6198 127.849 45.6965 128.065 45.6965C128.281 45.6965 128.574 45.6442 128.944 45.5395V45.9267C128.455 46.0593 128.058 46.1256 127.751 46.1256C126.9 46.1256 126.474 45.6128 126.474 44.5872V41.364H125.574V40.9244H126.474V39.8465L127.447 39.2919V40.9244ZM129.608 40.9244H131.303V45.4035L132.036 45.6128V46H129.556V45.6128L130.32 45.3826V41.4267L129.608 41.3012V40.9244ZM129.953 38.6953C129.953 38.507 130.013 38.3605 130.131 38.2558C130.257 38.1442 130.421 38.0884 130.623 38.0884C130.832 38.0884 131 38.1442 131.126 38.2558C131.251 38.3605 131.314 38.507 131.314 38.6953C131.314 38.8767 131.255 39.0233 131.136 39.1349C131.017 39.2465 130.85 39.3023 130.634 39.3023C130.424 39.3023 130.257 39.25 130.131 39.1453C130.013 39.0337 129.953 38.8837 129.953 38.6953ZM134.54 40.9244H136.068V41.364H134.54V44.6081C134.54 45.0198 134.589 45.3058 134.686 45.4663C134.784 45.6198 134.941 45.6965 135.157 45.6965C135.374 45.6965 135.667 45.6442 136.036 45.5395V45.9267C135.548 46.0593 135.15 46.1256 134.843 46.1256C133.992 46.1256 133.567 45.6128 133.567 44.5872V41.364H132.667V40.9244H133.567V39.8465L134.54 39.2919V40.9244ZM141.007 44.2314V45.4244C140.61 45.8779 139.968 46.1047 139.082 46.1047C138.203 46.1047 137.55 45.8744 137.125 45.414C136.699 44.9465 136.486 44.3012 136.486 43.4779C136.486 42.6547 136.71 42.0093 137.156 41.5419C137.61 41.0674 138.216 40.8302 138.977 40.8302C139.43 40.8302 139.807 40.914 140.107 41.0814C140.414 41.2488 140.634 41.4721 140.766 41.7512C140.976 42.2116 141.08 42.6965 141.08 43.2058H137.533C137.533 43.9942 137.623 44.5942 137.805 45.0058C138.014 45.4733 138.426 45.707 139.04 45.707C139.256 45.707 139.462 45.6791 139.657 45.6233C139.86 45.5605 140.006 45.5012 140.097 45.4453C140.187 45.3895 140.233 45.3547 140.233 45.3407L140.62 44.2314H141.007ZM138.956 41.2384C138.363 41.2384 137.958 41.5105 137.742 42.0547C137.637 42.2988 137.575 42.5674 137.554 42.8605H140.17C140.17 41.7791 139.765 41.2384 138.956 41.2384ZM137.836 39.6791H137.501L138.883 38.1512H140.285L137.836 39.6791ZM151.755 43.4779V45.2465C151.134 45.8953 150.269 46.2198 149.16 46.2198C148.051 46.2198 147.126 45.85 146.387 45.1105C145.654 44.364 145.288 43.3698 145.288 42.1279C145.288 40.8791 145.661 39.8884 146.408 39.1558C147.154 38.4163 148.078 38.0465 149.181 38.0465C150.29 38.0465 151.148 38.336 151.755 38.9151V40.6105H151.211L150.698 38.9465C150.314 38.6047 149.809 38.4337 149.181 38.4337C148.385 38.4337 147.74 38.7512 147.245 39.386C146.749 40.014 146.502 40.9105 146.502 42.0756C146.502 43.2337 146.739 44.1442 147.213 44.807C147.695 45.4698 148.337 45.8012 149.139 45.8012C149.788 45.8012 150.321 45.6058 150.74 45.2151L151.263 43.4779H151.755ZM153.281 38.1512H155.029V45.3826L155.876 45.6128V46H153.218V45.6128L154.035 45.393V38.6535L153.281 38.5279V38.1512ZM160.73 43.4988C160.73 42.7453 160.615 42.1872 160.384 41.8244C160.154 41.4547 159.777 41.2698 159.254 41.2698C158.738 41.2698 158.354 41.4477 158.103 41.8035C157.859 42.1523 157.737 42.714 157.737 43.4884C157.737 44.2628 157.859 44.8209 158.103 45.1628C158.347 45.4977 158.72 45.6651 159.223 45.6651C159.732 45.6651 160.109 45.4942 160.353 45.1523C160.604 44.8035 160.73 44.2523 160.73 43.4988ZM156.68 43.4988C156.68 42.6756 156.913 42.0267 157.381 41.5523C157.848 41.0709 158.466 40.8302 159.233 40.8302C160.008 40.8302 160.625 41.064 161.085 41.5314C161.546 41.9988 161.776 42.6512 161.776 43.4884C161.776 44.3256 161.546 44.9709 161.085 45.4244C160.625 45.8709 160.004 46.0942 159.223 46.0942C158.448 46.0942 157.831 45.8674 157.37 45.414C156.91 44.9605 156.68 44.3221 156.68 43.4988ZM162.718 40.9244H164.456V44.0535C164.456 44.6047 164.525 44.9953 164.665 45.2256C164.811 45.4558 165.049 45.5709 165.377 45.5709C165.865 45.5709 166.249 45.3407 166.528 44.8802C166.807 44.4198 166.946 43.7151 166.946 42.7663V41.4477L166.182 41.3116V40.9244H167.92V45.3721L168.746 45.6128V46H167.009V44.5872C166.828 45.0826 166.573 45.4628 166.245 45.7279C165.924 45.986 165.572 46.1151 165.188 46.1151C164.044 46.1151 163.472 45.4872 163.472 44.2314V41.4477L162.718 41.3116V40.9244ZM172.7 38.1512H174.458V45.393L175.347 45.6128V46H173.526V44.807C173.275 45.6721 172.679 46.1047 171.737 46.1047C171.081 46.1047 170.551 45.8779 170.146 45.4244C169.748 44.9709 169.55 44.3291 169.55 43.4988C169.55 42.6616 169.748 42.0093 170.146 41.5419C170.551 41.0744 171.078 40.8407 171.726 40.8407C172.194 40.8407 172.581 40.9523 172.888 41.1756C173.202 41.3988 173.401 41.6919 173.485 42.0547V38.6849L172.7 38.5279V38.1512ZM171.904 41.3116C171.039 41.3116 170.607 42.0337 170.607 43.4779C170.607 44.9151 171.043 45.6337 171.915 45.6337C172.382 45.6337 172.766 45.4384 173.066 45.0477C173.373 44.657 173.526 44.1337 173.526 43.4779C173.526 42.8221 173.373 42.2988 173.066 41.9081C172.766 41.5105 172.379 41.3116 171.904 41.3116Z" fill="#54647E"/>
</g>
<defs>
<clipPath id="clip0_3872_4102">
<rect width="176" height="50" fill="white"/>
</clipPath>
</defs>
</svg>
