<svg width="36" height="44" viewBox="0 0 36 44" fill="none" xmlns="http://www.w3.org/2000/svg">
<path d="M20.9366 33.1218C26.7306 27.3048 27.2593 19.188 23.3383 13.9394C21.0447 10.8686 18.0612 9.20824 14.1697 9.74332C10.8266 10.2017 8.47204 12.1807 6.80931 15.0489C6.12732 16.2253 5.634 17.4785 5.3333 18.8044C5.08369 19.8981 5.47874 20.685 6.3553 20.9093C7.30263 21.1513 8.02589 20.6516 8.31874 19.5381C8.85529 17.4922 9.72596 15.6411 11.4221 14.2915C14.3211 11.986 17.733 12.2614 20.2487 14.984C23.8827 18.9204 23.7294 26.0005 19.9323 29.7717C17.0569 32.6281 12.792 32.3153 10.3156 29.0949C9.19924 27.6411 8.54279 26.0103 8.17723 24.23C7.95121 23.1244 7.00978 22.5834 6.08998 22.9769C5.45122 23.2483 5.05421 23.7637 5.14265 24.4562C5.64383 28.369 8.01017 32.6969 12.2672 34.2471C16.0349 35.6182 19.3505 34.674 20.9405 33.1277L20.9366 33.1218Z" fill="#124FA6"/>
<path d="M25.5736 8.98474C19.2962 2.69552 9.53797 3.22077 4.19602 10.2615C-0.831463 16.8871 -1.20292 24.0183 2.34265 31.4406C2.55688 31.8911 2.82614 32.3259 3.13077 32.7213C3.6634 33.4098 4.47707 33.5633 5.13155 33.1541C5.85875 32.6977 6.10835 31.9029 5.69169 31.1042C5.24161 30.2426 4.74044 29.4104 4.36701 28.5075C1.91027 22.5802 3.26049 15.2818 7.61581 10.9992C12.5922 6.10473 20.3811 6.78342 24.4966 12.4372C25.6385 14.0051 26.4934 15.695 27.085 17.5323C27.4526 18.6714 28.1817 19.1514 29.0799 18.876C29.9801 18.6005 30.3555 17.7645 30.0213 16.6392C29.1605 13.7297 27.7199 11.1507 25.5736 8.98671V8.98474Z" fill="#3CC5C1"/>
<path d="M29.5129 6.30666C21.9953 -1.20421 11.8086 -1.95372 4.15141 3.7768C3.67579 4.13287 3.23947 4.54796 2.83067 4.97878C2.19977 5.64174 2.17816 6.37945 2.71471 7.00306C3.2493 7.62274 4.0099 7.75257 4.74693 7.26863C5.34637 6.87322 5.86917 6.36371 6.46075 5.95452C12.5063 1.76827 19.7095 2.04761 25.3659 6.72764C29.8372 10.426 31.9579 15.3146 32.349 21.0176C32.4689 22.7743 32.3706 24.5291 32.0247 26.2681C31.779 27.5016 32.2448 28.2747 33.2177 28.4458C34.1237 28.6052 34.8588 28.0189 35.0534 26.8661C36.4291 18.7513 34.4028 11.6339 29.5109 6.30666H29.5129Z" fill="#124FA6"/>
<path d="M25.5887 35.5393C29.1736 31.6934 30.8481 27.2219 30.8029 22.0914C30.7931 20.9405 30.1937 20.25 29.2444 20.2599C28.2912 20.2697 27.7094 20.9405 27.7212 22.1287C27.7526 25.597 26.8053 28.7583 24.8321 31.6108C22.0274 35.6652 17.454 37.538 12.9729 36.4737C11.5342 36.1314 10.3097 35.3387 9.04403 34.6304C8.17729 34.1445 7.33413 34.2272 6.84475 34.8842C6.31409 35.5964 6.46347 36.4364 7.24569 37.1249C7.36362 37.2292 7.48547 37.3275 7.61519 37.4141C9.66313 38.7793 11.8919 39.6508 14.3604 39.8318C18.814 40.1564 22.5109 38.4941 25.5868 35.5373L25.5887 35.5393Z" fill="#3CC5C1"/>
<path d="M11.7156 16.3318C9.86615 18.5607 9.45342 21.6728 10.2533 25.0289C10.5029 26.0735 10.9432 27.0375 11.5741 27.9207C13.6594 30.8401 17.3111 30.8303 19.3629 27.8794C22.1853 23.8092 19.7776 22.202 18.0658 23.945C17.7513 24.2656 17.5194 24.661 17.3641 25.082C17.0202 26.0125 16.578 26.9784 15.4302 26.9292C14.2549 26.8781 13.7301 25.743 13.3901 24.7122C12.7356 22.7253 12.7828 20.7561 13.7793 18.8695C14.4101 17.6735 14.931 17.4374 16.2694 17.6853C17.1578 17.8485 17.8712 17.4452 18.1189 16.6367C18.3508 15.8833 18.0167 15.177 17.2384 14.7816C15.609 13.9534 13.6653 14.3685 11.7156 16.3298V16.3318Z" fill="#3CC5C1"/>
<path d="M32.8843 31.0133C32.0568 30.1871 30.8933 30.4369 30.2958 31.5602C29.321 33.3996 28.1653 35.0953 26.6952 36.5806C24.6905 38.6049 22.3537 40.0567 19.6237 40.8711C19.4429 40.9242 19.2621 40.9734 19.0852 41.0403C18.2597 41.359 17.8726 42.018 18.0494 42.797C18.2342 43.6114 18.9358 44.1249 19.8124 43.9734C21.1174 43.7472 22.3497 43.2593 23.525 42.6672C27.7899 40.5209 30.8874 37.214 33.0277 32.9747C33.3854 32.2645 33.4012 31.5937 32.8823 31.0114L32.8843 31.0133Z" fill="#124FA6"/>
</svg>
