<svg width="186" height="50" viewBox="0 0 186 50" fill="none" xmlns="http://www.w3.org/2000/svg">
<path d="M24.4228 35.3178C29.7978 29.9213 30.2883 22.3914 26.6508 17.5224C24.5231 14.6736 21.7553 13.1333 18.1452 13.6297C15.0438 14.0549 12.8595 15.8909 11.317 18.5517C10.6843 19.643 10.2267 20.8055 9.94771 22.0356C9.71615 23.0503 10.0826 23.7803 10.8958 23.9883C11.7746 24.2128 12.4456 23.7492 12.7173 22.7163C13.215 20.8183 14.0228 19.101 15.5962 17.8491C18.2856 15.7102 21.4508 15.9657 23.7846 18.4915C27.1559 22.1432 27.0137 28.7114 23.4911 32.2099C20.8236 34.8597 16.8671 34.5696 14.5697 31.5821C13.5341 30.2334 12.9251 28.7205 12.586 27.0689C12.3763 26.0432 11.503 25.5414 10.6497 25.9064C10.0571 26.1582 9.6888 26.6364 9.77085 27.2787C10.2358 30.9086 12.431 34.9236 16.3803 36.3617C19.8755 37.6337 22.9514 36.7577 24.4264 35.3233L24.4228 35.3178Z" fill="#0B1120"/>
<path d="M28.7245 12.9256C22.9009 7.09115 13.8483 7.57843 8.89265 14.11C4.22868 20.2566 3.88408 26.8721 7.17329 33.7578C7.37202 34.1757 7.62181 34.579 7.90442 34.9459C8.39853 35.5846 9.15337 35.727 9.76053 35.3474C10.4351 34.924 10.6667 34.1867 10.2802 33.4457C9.86263 32.6464 9.3977 31.8744 9.05127 31.0368C6.77216 25.5381 8.02476 18.7674 12.0652 14.7944C16.6817 10.2539 23.9074 10.8835 27.7254 16.1285C28.7847 17.583 29.5778 19.1506 30.1266 20.8552C30.4676 21.9118 31.144 22.3571 31.9773 22.1016C32.8123 21.8461 33.1606 21.0705 32.8506 20.0266C32.052 17.3275 30.7156 14.9349 28.7245 12.9274V12.9256Z" fill="#0B1120"/>
<path d="M32.379 10.4415C25.4049 3.47368 15.9548 2.77836 8.85129 8.09454C8.41005 8.42486 8.00528 8.80993 7.62604 9.2096C7.04076 9.82462 7.02071 10.509 7.51847 11.0875C8.0144 11.6624 8.72001 11.7828 9.40374 11.3339C9.95984 10.9671 10.4448 10.4944 10.9936 10.1148C16.6021 6.23123 23.2844 6.49038 28.5318 10.832C32.6798 14.263 34.6471 18.7981 35.01 24.0887C35.1212 25.7184 35.03 27.3463 34.7091 28.9596C34.4812 30.1038 34.9133 30.8211 35.8159 30.9798C36.6564 31.1277 37.3383 30.5838 37.5188 29.5144C38.7951 21.9863 36.9153 15.3835 32.3772 10.4415H32.379Z" fill="#0B1120"/>
<path d="M28.7386 37.561C32.0642 33.9931 33.6177 29.8449 33.5757 25.0854C33.5666 24.0178 33.0105 23.3772 32.1299 23.3863C31.2456 23.3955 30.7059 24.0178 30.7168 25.1201C30.746 28.3375 29.8672 31.2702 28.0366 33.9165C25.4348 37.6778 21.192 39.4151 17.0349 38.4278C15.7002 38.1103 14.5643 37.3748 13.3901 36.7178C12.5861 36.2671 11.8039 36.3437 11.3499 36.9532C10.8576 37.6139 10.9962 38.3932 11.7218 39.0319C11.8312 39.1286 11.9443 39.2199 12.0646 39.3002C13.9645 40.5667 16.0321 41.3752 18.3221 41.5431C22.4537 41.8442 25.8833 40.3021 28.7367 37.5591L28.7386 37.561Z" fill="#0B1120"/>
<path d="M15.8685 19.7413C14.1528 21.809 13.7699 24.6962 14.512 27.8096C14.7435 28.7787 15.1519 29.6729 15.7372 30.4923C17.6717 33.2006 21.0594 33.1915 22.9629 30.454C25.5811 26.6781 23.3476 25.1871 21.7595 26.804C21.4678 27.1015 21.2527 27.4683 21.1086 27.8589C20.7895 28.7221 20.3793 29.6181 19.3145 29.5725C18.2242 29.5251 17.7374 28.4721 17.4219 27.5158C16.8148 25.6725 16.8585 23.8457 17.7829 22.0956C18.3682 20.986 18.8514 20.767 20.0931 20.9969C20.9172 21.1484 21.579 20.7743 21.8088 20.0242C22.0239 19.3252 21.714 18.6701 20.9919 18.3033C19.4804 17.5349 17.6772 17.92 15.8685 19.7395V19.7413Z" fill="#0B1120"/>
<path d="M35.5065 33.3618C34.7389 32.5953 33.6596 32.8271 33.1053 33.8692C32.2009 35.5755 31.1288 37.1487 29.765 38.5265C27.9053 40.4044 25.7374 41.7513 23.2048 42.5068C23.0371 42.5561 22.8693 42.6017 22.7053 42.6638C21.9395 42.9594 21.5803 43.5708 21.7444 44.2935C21.9158 45.049 22.5667 45.5253 23.3799 45.3848C24.5905 45.175 25.7337 44.7224 26.8241 44.173C30.7806 42.182 33.6541 39.1142 35.6396 35.1813C35.9715 34.5225 35.9861 33.9002 35.5047 33.36L35.5065 33.3618Z" fill="#0B1120"/>
<path d="M63.2979 20.8513V25.1631C61.7842 26.7449 59.6751 27.5358 56.9707 27.5358C54.2663 27.5358 52.0126 26.6343 50.2097 24.8314C48.4238 23.0114 47.5308 20.5877 47.5308 17.5601C47.5308 14.5155 48.4408 12.1003 50.2607 10.3144C52.0806 8.51145 54.3343 7.60998 57.0217 7.60998C59.7261 7.60998 61.8182 8.31585 63.2979 9.72757V13.8607H61.9713L60.7211 9.80411C59.7856 8.97068 58.5525 8.55397 57.0217 8.55397C55.0827 8.55397 53.5094 9.32787 52.3018 10.8757C51.0941 12.4065 50.4903 14.5921 50.4903 17.4326C50.4903 20.256 51.0686 22.4757 52.2252 24.0915C53.3988 25.7073 54.9636 26.5152 56.9196 26.5152C58.5015 26.5152 59.8026 26.039 60.8232 25.0865L62.0988 20.8513H63.2979ZM66.0996 7.86511H73.8556V8.8091L71.6105 9.34488L76.458 17.6622L80.9228 9.42142L78.7031 8.78359V7.86511H84.9538V8.78359L82.6832 9.47244L77.0192 18.8103V25.4692L79.6471 26.056V27H71.8911V26.056L74.3404 25.4947V19.1675L68.5489 9.44693L66.0996 8.8091V7.86511ZM88.011 7.86511H94.7975C96.5324 7.86511 98.0547 8.0267 99.3644 8.34986C100.674 8.65602 101.839 9.17479 102.86 9.90617C103.897 10.6205 104.68 11.6156 105.207 12.8912C105.751 14.1669 106.023 15.7147 106.023 17.5346C106.023 19.3545 105.751 20.8938 105.207 22.1525C104.663 23.4111 103.855 24.3892 102.783 25.0865C101.712 25.7669 100.495 26.2601 99.1348 26.5663C97.7911 26.8554 96.1923 27 94.3383 27H88.011V26.056L90.5368 25.4692V9.42142L88.011 8.8091V7.86511ZM93.2157 25.9284H94.4659C97.4084 25.9284 99.577 25.2991 100.972 24.0405C102.366 22.7818 103.064 20.6217 103.064 17.5601C103.064 14.4815 102.409 12.2789 101.099 10.9522C99.7896 9.60851 97.7231 8.93667 94.8996 8.93667H93.2157V25.9284ZM109.862 7.86511H123.919V12.432H122.593L121.598 8.96218H115.066V16.5906H119.99L120.679 14.371H121.623V19.6522H120.679L119.99 17.7132H115.066V25.9029H122.057L123.052 22.4587H124.404V27H109.862V26.056L112.387 25.4692V9.42142L109.862 8.8091V7.86511ZM141.324 7.86511H147.601V8.8091L145.1 9.44693V27H143.314L131.374 9.49796V25.4947L133.875 26.056V27H127.726V26.056L130.099 25.4947V9.47244L127.726 8.8091V7.86511H133.415L143.825 22.9689V9.47244L141.324 8.8091V7.86511ZM155.178 27V26.056L157.652 25.4692V8.96218H152.984L151.989 12.6871H150.662V7.86511H167.398V12.6871H166.072L165.077 8.96218H160.331V25.4947L162.934 26.056V27H155.178ZM170.455 7.86511H178.212V8.8091L175.66 9.3959V25.4947L178.212 26.056V27H170.455V26.056L172.981 25.4692V9.42142L170.455 8.8091V7.86511Z" fill="#0B1120"/>
<path d="M53.7965 46V45.6128L54.8221 45.3721V38.8L51.9756 46H51.3372L48.4907 38.8V45.3721L49.5372 45.6128V46H46.9419V45.6128L47.9465 45.3721V38.8105L47.057 38.5384V38.1512H49.307L51.9547 44.7023L54.5291 38.1512H56.9988V38.5384L55.9105 38.7895V45.3721L56.9779 45.6128V46H53.7965ZM63.6089 46H61.767V44.943C61.4391 45.7105 60.8635 46.0942 60.0403 46.0942C59.4891 46.0942 59.0705 45.9756 58.7844 45.7384C58.4984 45.4942 58.3554 45.1558 58.3554 44.7233C58.3554 44.1093 58.624 43.6698 59.1612 43.4047C59.7054 43.1326 60.567 42.986 61.7461 42.9651V42.5151C61.7461 42.0198 61.6449 41.6849 61.4426 41.5105C61.2403 41.3291 60.9403 41.2384 60.5426 41.2384C60.1449 41.2384 59.7996 41.3291 59.5065 41.5105L59.1612 42.5465H58.774V41.364C58.9484 41.2174 59.1891 41.0953 59.4961 40.9977C59.8031 40.893 60.1379 40.8407 60.5007 40.8407C61.2403 40.8407 61.7949 40.9837 62.1647 41.2698C62.5414 41.5488 62.7298 42.0477 62.7298 42.7663V45.3721L63.6089 45.6128V46ZM60.3124 45.6547C60.7589 45.6547 61.1077 45.4837 61.3589 45.1419C61.617 44.793 61.7461 44.1895 61.7461 43.3314C60.5461 43.3314 59.8135 43.5163 59.5484 43.886C59.4228 44.0605 59.36 44.3186 59.36 44.6605C59.36 45.0023 59.4333 45.2535 59.5798 45.414C59.7333 45.5744 59.9775 45.6547 60.3124 45.6547ZM64.5511 40.9244H66.2464V45.4035L66.979 45.6128V46H64.4987V45.6128L65.2627 45.3826V41.4267L64.5511 41.3012V40.9244ZM65.8487 38.1512L67.4708 39.8674H67.0522L65.6708 39.0826L64.3731 39.8674H63.965L65.4929 38.1512H65.8487ZM69.4829 40.9244H71.0108V41.364H69.4829V44.6081C69.4829 45.0198 69.5317 45.3058 69.6294 45.4663C69.7271 45.6198 69.8841 45.6965 70.1003 45.6965C70.3166 45.6965 70.6096 45.6442 70.9794 45.5395V45.9267C70.491 46.0593 70.0934 46.1256 69.7864 46.1256C68.9352 46.1256 68.5096 45.6128 68.5096 44.5872V41.364H67.6096V40.9244H68.5096V39.8465L69.4829 39.2919V40.9244ZM71.7483 40.9244H73.4855V42.4105C73.625 41.9919 73.8413 41.643 74.1343 41.364C74.4273 41.0779 74.7832 40.9349 75.2018 40.9349C75.4599 40.9349 75.7704 41.0291 76.1332 41.2174V42.4733H75.725L75.4006 41.6151C75.268 41.5453 75.118 41.5105 74.9506 41.5105C74.6436 41.5105 74.3332 41.6919 74.0192 42.0547C73.7122 42.4105 73.5587 42.7942 73.5587 43.2058V45.393L74.3332 45.6128V46H71.7692V45.6128L72.5646 45.393V41.4477L71.7483 41.3012V40.9244ZM76.7127 40.9244H78.408V45.4035L79.1406 45.6128V46H76.6603V45.6128L77.4243 45.3826V41.4267L76.7127 41.3012V40.9244ZM77.058 38.6953C77.058 38.507 77.1173 38.3605 77.2359 38.2558C77.3615 38.1442 77.5255 38.0884 77.7278 38.0884C77.9371 38.0884 78.1045 38.1442 78.2301 38.2558C78.3557 38.3605 78.4185 38.507 78.4185 38.6953C78.4185 38.8767 78.3592 39.0233 78.2406 39.1349C78.122 39.2465 77.9545 39.3023 77.7382 39.3023C77.5289 39.3023 77.3615 39.25 77.2359 39.1453C77.1173 39.0337 77.058 38.8837 77.058 38.6953ZM84.041 44.5035C84.041 44.9709 83.8666 45.3477 83.5178 45.6337C83.1689 45.9128 82.6317 46.0523 81.9061 46.0523C81.1875 46.0523 80.6259 45.8605 80.2213 45.4767V44.2628H80.6294L80.9329 45.2884C81.1771 45.5326 81.5678 45.6547 82.105 45.6547C82.4817 45.6547 82.7678 45.5709 82.9631 45.4035C83.1585 45.236 83.2561 45.0337 83.2561 44.7965C83.2561 44.5593 83.155 44.3744 82.9527 44.2419C82.7503 44.1093 82.3492 43.9488 81.7492 43.7605C81.1561 43.5651 80.741 43.3628 80.5038 43.1535C80.2666 42.9442 80.148 42.6337 80.148 42.2221C80.148 41.8035 80.3189 41.4581 80.6608 41.186C81.0027 40.914 81.505 40.7779 82.1678 40.7779C82.8306 40.7779 83.3643 40.9349 83.7689 41.2488V42.4523H83.3608L83.0364 41.4477C82.8061 41.2663 82.4992 41.1756 82.1154 41.1756C81.355 41.1756 80.9747 41.4477 80.9747 41.9919C80.9747 42.1942 81.0829 42.3721 81.2992 42.5256C81.5224 42.6721 81.9271 42.836 82.5131 43.0174C83.0992 43.1988 83.5003 43.4047 83.7166 43.6349C83.9329 43.8581 84.041 44.1477 84.041 44.5035ZM89.5324 44.2314V45.4244C89.1347 45.8779 88.4928 46.1047 87.6068 46.1047C86.7277 46.1047 86.0754 45.8744 85.6498 45.414C85.2242 44.9465 85.0114 44.3012 85.0114 43.4779C85.0114 42.6547 85.2347 42.0093 85.6812 41.5419C86.1347 41.0674 86.7417 40.8302 87.5021 40.8302C87.9556 40.8302 88.3324 40.914 88.6324 41.0814C88.9393 41.2488 89.1591 41.4721 89.2917 41.7512C89.501 42.2116 89.6056 42.6965 89.6056 43.2058H86.0579C86.0579 43.9942 86.1486 44.5942 86.33 45.0058C86.5393 45.4733 86.951 45.707 87.5649 45.707C87.7812 45.707 87.987 45.6791 88.1824 45.6233C88.3847 45.5605 88.5312 45.5012 88.6219 45.4453C88.7126 45.3895 88.7579 45.3547 88.7579 45.3407L89.1451 44.2314H89.5324ZM87.4812 41.2384C86.8882 41.2384 86.4835 41.5105 86.2672 42.0547C86.1626 42.2988 86.0998 42.5674 86.0789 42.8605H88.6951C88.6951 41.7791 88.2905 41.2384 87.4812 41.2384ZM90.8696 40.9244H92.6068V42.4105C92.7463 41.9919 92.9626 41.643 93.2556 41.364C93.5487 41.0779 93.9045 40.9349 94.3231 40.9349C94.5812 40.9349 94.8917 41.0291 95.2545 41.2174V42.4733H94.8463L94.5219 41.6151C94.3894 41.5453 94.2394 41.5105 94.0719 41.5105C93.7649 41.5105 93.4545 41.6919 93.1405 42.0547C92.8335 42.4105 92.6801 42.7942 92.6801 43.2058V45.393L93.4545 45.6128V46H90.8905V45.6128L91.6859 45.393V41.4477L90.8696 41.3012V40.9244ZM99.247 38.1512H102.428V38.5384L101.392 38.7791V45.5395H104.071L104.48 44.0221H105.024V46H99.247V45.6128L100.294 45.3721V38.7895L99.247 38.5384V38.1512ZM105.074 40.3174V37.6802H106.403L105.566 40.3174H105.074ZM108.016 40.9244H109.711V45.4035L110.444 45.6128V46H107.964V45.6128L108.728 45.3826V41.4267L108.016 41.3012V40.9244ZM108.361 38.6953C108.361 38.507 108.421 38.3605 108.539 38.2558C108.665 38.1442 108.829 38.0884 109.031 38.0884C109.24 38.0884 109.408 38.1442 109.533 38.2558C109.659 38.3605 109.722 38.507 109.722 38.6953C109.722 38.8767 109.663 39.0233 109.544 39.1349C109.425 39.2465 109.258 39.3023 109.042 39.3023C108.832 39.3023 108.665 39.25 108.539 39.1453C108.421 39.0337 108.361 38.8837 108.361 38.6953ZM114.643 38.1512H116.401V45.393L117.291 45.6128V46H115.47V44.807C115.219 45.6721 114.622 46.1047 113.68 46.1047C113.025 46.1047 112.494 45.8779 112.09 45.4244C111.692 44.9709 111.493 44.3291 111.493 43.4988C111.493 42.6616 111.692 42.0093 112.09 41.5419C112.494 41.0744 113.021 40.8407 113.67 40.8407C114.137 40.8407 114.525 40.9523 114.832 41.1756C115.146 41.3988 115.344 41.6919 115.428 42.0547V38.6849L114.643 38.5279V38.1512ZM113.848 41.3116C112.983 41.3116 112.55 42.0337 112.55 43.4779C112.55 44.9151 112.986 45.6337 113.858 45.6337C114.326 45.6337 114.71 45.4384 115.01 45.0477C115.316 44.657 115.47 44.1337 115.47 43.4779C115.47 42.8221 115.316 42.2988 115.01 41.9081C114.71 41.5105 114.322 41.3116 113.848 41.3116ZM122.45 44.2314V45.4244C122.053 45.8779 121.411 46.1047 120.525 46.1047C119.646 46.1047 118.993 45.8744 118.568 45.414C118.142 44.9465 117.93 44.3012 117.93 43.4779C117.93 42.6547 118.153 42.0093 118.599 41.5419C119.053 41.0674 119.66 40.8302 120.42 40.8302C120.874 40.8302 121.25 40.914 121.55 41.0814C121.857 41.2488 122.077 41.4721 122.21 41.7512C122.419 42.2116 122.524 42.6965 122.524 43.2058H118.976C118.976 43.9942 119.067 44.5942 119.248 45.0058C119.457 45.4733 119.869 45.707 120.483 45.707C120.699 45.707 120.905 45.6791 121.1 45.6233C121.303 45.5605 121.449 45.5012 121.54 45.4453C121.631 45.3895 121.676 45.3547 121.676 45.3407L122.063 44.2314H122.45ZM120.399 41.2384C119.806 41.2384 119.402 41.5105 119.185 42.0547C119.081 42.2988 119.018 42.5674 118.997 42.8605H121.613C121.613 41.7791 121.209 41.2384 120.399 41.2384ZM123.861 40.914H125.556V42.3895C125.835 41.357 126.456 40.8407 127.419 40.8407C127.984 40.8407 128.403 41.0151 128.675 41.364C128.947 41.7058 129.083 42.1802 129.083 42.7872V45.3826L129.889 45.6128V46H127.409V45.6128L128.11 45.4035V42.9128C128.11 42.3477 128.033 41.943 127.88 41.6988C127.733 41.4547 127.499 41.3326 127.178 41.3326C126.683 41.3326 126.299 41.5698 126.027 42.0442C125.762 42.5116 125.63 43.2163 125.63 44.1581V45.4035L126.362 45.6128V46H123.861V45.6128L124.635 45.393V41.4372L123.861 41.2907V40.914ZM132.447 40.9244H133.975V41.364H132.447V44.6081C132.447 45.0198 132.496 45.3058 132.594 45.4663C132.692 45.6198 132.849 45.6965 133.065 45.6965C133.281 45.6965 133.574 45.6442 133.944 45.5395V45.9267C133.455 46.0593 133.058 46.1256 132.751 46.1256C131.9 46.1256 131.474 45.6128 131.474 44.5872V41.364H130.574V40.9244H131.474V39.8465L132.447 39.2919V40.9244ZM134.608 40.9244H136.303V45.4035L137.036 45.6128V46H134.556V45.6128L135.32 45.3826V41.4267L134.608 41.3012V40.9244ZM134.953 38.6953C134.953 38.507 135.013 38.3605 135.131 38.2558C135.257 38.1442 135.421 38.0884 135.623 38.0884C135.832 38.0884 136 38.1442 136.126 38.2558C136.251 38.3605 136.314 38.507 136.314 38.6953C136.314 38.8767 136.255 39.0233 136.136 39.1349C136.017 39.2465 135.85 39.3023 135.634 39.3023C135.424 39.3023 135.257 39.25 135.131 39.1453C135.013 39.0337 134.953 38.8837 134.953 38.6953ZM139.54 40.9244H141.068V41.364H139.54V44.6081C139.54 45.0198 139.589 45.3058 139.686 45.4663C139.784 45.6198 139.941 45.6965 140.157 45.6965C140.374 45.6965 140.667 45.6442 141.036 45.5395V45.9267C140.548 46.0593 140.15 46.1256 139.843 46.1256C138.992 46.1256 138.567 45.6128 138.567 44.5872V41.364H137.667V40.9244H138.567V39.8465L139.54 39.2919V40.9244ZM146.007 44.2314V45.4244C145.61 45.8779 144.968 46.1047 144.082 46.1047C143.203 46.1047 142.55 45.8744 142.125 45.414C141.699 44.9465 141.486 44.3012 141.486 43.4779C141.486 42.6547 141.71 42.0093 142.156 41.5419C142.61 41.0674 143.216 40.8302 143.977 40.8302C144.43 40.8302 144.807 40.914 145.107 41.0814C145.414 41.2488 145.634 41.4721 145.766 41.7512C145.976 42.2116 146.08 42.6965 146.08 43.2058H142.533C142.533 43.9942 142.623 44.5942 142.805 45.0058C143.014 45.4733 143.426 45.707 144.04 45.707C144.256 45.707 144.462 45.6791 144.657 45.6233C144.86 45.5605 145.006 45.5012 145.097 45.4453C145.187 45.3895 145.233 45.3547 145.233 45.3407L145.62 44.2314H146.007ZM143.956 41.2384C143.363 41.2384 142.958 41.5105 142.742 42.0547C142.637 42.2988 142.575 42.5674 142.554 42.8605H145.17C145.17 41.7791 144.765 41.2384 143.956 41.2384ZM142.836 39.6791H142.501L143.883 38.1512H145.285L142.836 39.6791ZM156.755 43.4779V45.2465C156.134 45.8953 155.269 46.2198 154.16 46.2198C153.051 46.2198 152.126 45.85 151.387 45.1105C150.654 44.364 150.288 43.3698 150.288 42.1279C150.288 40.8791 150.661 39.8884 151.408 39.1558C152.154 38.4163 153.078 38.0465 154.181 38.0465C155.29 38.0465 156.148 38.336 156.755 38.9151V40.6105H156.211L155.698 38.9465C155.314 38.6047 154.809 38.4337 154.181 38.4337C153.385 38.4337 152.74 38.7512 152.245 39.386C151.749 40.014 151.502 40.9105 151.502 42.0756C151.502 43.2337 151.739 44.1442 152.213 44.807C152.695 45.4698 153.337 45.8012 154.139 45.8012C154.788 45.8012 155.321 45.6058 155.74 45.2151L156.263 43.4779H156.755ZM158.281 38.1512H160.029V45.3826L160.876 45.6128V46H158.218V45.6128L159.035 45.393V38.6535L158.281 38.5279V38.1512ZM165.73 43.4988C165.73 42.7453 165.615 42.1872 165.384 41.8244C165.154 41.4547 164.777 41.2698 164.254 41.2698C163.738 41.2698 163.354 41.4477 163.103 41.8035C162.859 42.1523 162.737 42.714 162.737 43.4884C162.737 44.2628 162.859 44.8209 163.103 45.1628C163.347 45.4977 163.72 45.6651 164.223 45.6651C164.732 45.6651 165.109 45.4942 165.353 45.1523C165.604 44.8035 165.73 44.2523 165.73 43.4988ZM161.68 43.4988C161.68 42.6756 161.913 42.0267 162.381 41.5523C162.848 41.0709 163.466 40.8302 164.233 40.8302C165.008 40.8302 165.625 41.064 166.085 41.5314C166.546 41.9988 166.776 42.6512 166.776 43.4884C166.776 44.3256 166.546 44.9709 166.085 45.4244C165.625 45.8709 165.004 46.0942 164.223 46.0942C163.448 46.0942 162.831 45.8674 162.37 45.414C161.91 44.9605 161.68 44.3221 161.68 43.4988ZM167.718 40.9244H169.456V44.0535C169.456 44.6047 169.525 44.9953 169.665 45.2256C169.811 45.4558 170.049 45.5709 170.377 45.5709C170.865 45.5709 171.249 45.3407 171.528 44.8802C171.807 44.4198 171.946 43.7151 171.946 42.7663V41.4477L171.182 41.3116V40.9244H172.92V45.3721L173.746 45.6128V46H172.009V44.5872C171.828 45.0826 171.573 45.4628 171.245 45.7279C170.924 45.986 170.572 46.1151 170.188 46.1151C169.044 46.1151 168.472 45.4872 168.472 44.2314V41.4477L167.718 41.3116V40.9244ZM177.7 38.1512H179.458V45.393L180.347 45.6128V46H178.526V44.807C178.275 45.6721 177.679 46.1047 176.737 46.1047C176.081 46.1047 175.551 45.8779 175.146 45.4244C174.748 44.9709 174.55 44.3291 174.55 43.4988C174.55 42.6616 174.748 42.0093 175.146 41.5419C175.551 41.0744 176.078 40.8407 176.726 40.8407C177.194 40.8407 177.581 40.9523 177.888 41.1756C178.202 41.3988 178.401 41.6919 178.485 42.0547V38.6849L177.7 38.5279V38.1512ZM176.904 41.3116C176.039 41.3116 175.607 42.0337 175.607 43.4779C175.607 44.9151 176.043 45.6337 176.915 45.6337C177.382 45.6337 177.766 45.4384 178.066 45.0477C178.373 44.657 178.526 44.1337 178.526 43.4779C178.526 42.8221 178.373 42.2988 178.066 41.9081C177.766 41.5105 177.379 41.3116 176.904 41.3116Z" fill="#0B1120"/>
</svg>
