<svg width="234" height="74" viewBox="0 0 234 74" fill="none" xmlns="http://www.w3.org/2000/svg">
<rect width="234" height="74" fill="#0B1120"/>
<g clip-path="url(#clip0_3872_4189)">
<path d="M48.4228 47.3178C53.7978 41.9213 54.2883 34.3914 50.6508 29.5224C48.523 26.6736 45.7553 25.1333 42.1452 25.6297C39.0438 26.0549 36.8595 27.8909 35.317 30.5517C34.6843 31.643 34.2267 32.8055 33.9477 34.0356C33.7161 35.0503 34.0826 35.7803 34.8958 35.9883C35.7746 36.2128 36.4456 35.7492 36.7173 34.7163C37.215 32.8183 38.0227 31.101 39.5962 29.8491C42.2856 27.7102 45.4508 27.9657 47.7846 30.4915C51.1559 34.1432 51.0137 40.7114 47.4911 44.2099C44.8236 46.8597 40.8671 46.5696 38.5697 43.5821C37.5341 42.2334 36.9251 40.7205 36.586 39.0689C36.3763 38.0432 35.503 37.5414 34.6497 37.9064C34.0571 38.1582 33.6888 38.6364 33.7708 39.2787C34.2358 42.9086 36.431 46.9236 40.3802 48.3617C43.8755 49.6337 46.9514 48.7577 48.4264 47.3233L48.4228 47.3178Z" fill="white"/>
<path d="M52.7245 24.9256C46.901 19.0912 37.8483 19.5784 32.8927 26.11C28.2287 32.2566 27.8841 38.8721 31.1733 45.7578C31.372 46.1757 31.6218 46.579 31.9044 46.9459C32.3985 47.5846 33.1534 47.727 33.7605 47.3474C34.4352 46.924 34.6667 46.1867 34.2802 45.4457C33.8626 44.6464 33.3977 43.8744 33.0513 43.0368C30.7722 37.5381 32.0248 30.7674 36.0652 26.7944C40.6817 22.2539 47.9074 22.8835 51.7254 28.1285C52.7847 29.583 53.5778 31.1506 54.1266 32.8552C54.4676 33.9118 55.144 34.3571 55.9773 34.1016C56.8123 33.8461 57.1606 33.0705 56.8506 32.0266C56.052 29.3275 54.7156 26.9349 52.7245 24.9274V24.9256Z" fill="white"/>
<path d="M56.379 22.4415C49.4049 15.4737 39.9548 14.7784 32.8513 20.0945C32.41 20.4249 32.0053 20.8099 31.626 21.2096C31.0408 21.8246 31.0207 22.509 31.5185 23.0875C32.0144 23.6624 32.72 23.7828 33.4037 23.3339C33.9598 22.9671 34.4448 22.4944 34.9936 22.1148C40.6021 18.2312 47.2844 18.4904 52.5318 22.832C56.6798 26.263 58.6471 30.7981 59.01 36.0887C59.1212 37.7184 59.03 39.3463 58.7091 40.9596C58.4812 42.1038 58.9133 42.8211 59.8159 42.9798C60.6564 43.1277 61.3383 42.5838 61.5188 41.5144C62.7951 33.9863 60.9153 27.3835 56.3771 22.4415H56.379Z" fill="white"/>
<path d="M52.7386 49.561C56.0642 45.9931 57.6177 41.8449 57.5757 37.0854C57.5666 36.0178 57.0105 35.3772 56.1299 35.3863C55.2456 35.3955 54.7059 36.0178 54.7168 37.1201C54.746 40.3375 53.8672 43.2702 52.0366 45.9165C49.4348 49.6778 45.192 51.4151 41.0349 50.4278C39.7002 50.1103 38.5643 49.3748 37.3901 48.7178C36.5861 48.2671 35.8039 48.3437 35.3499 48.9532C34.8576 49.6139 34.9962 50.3932 35.7218 51.0319C35.8312 51.1286 35.9443 51.2199 36.0646 51.3002C37.9645 52.5667 40.0321 53.3752 42.3221 53.5431C46.4537 53.8442 49.8833 52.3021 52.7367 49.5591L52.7386 49.561Z" fill="white"/>
<path d="M39.8685 31.7413C38.1528 33.809 37.7699 36.6962 38.512 39.8096C38.7435 40.7787 39.152 41.6729 39.7372 42.4923C41.6717 45.2006 45.0594 45.1915 46.9629 42.454C49.5812 38.6781 47.3476 37.1871 45.7595 38.804C45.4678 39.1015 45.2527 39.4683 45.1086 39.8589C44.7896 40.7221 44.3793 41.6181 43.3145 41.5725C42.2242 41.5251 41.7374 40.4721 41.4219 39.5158C40.8148 37.6725 40.8585 35.8457 41.783 34.0956C42.3682 32.986 42.8514 32.767 44.0931 32.9969C44.9172 33.1484 45.579 32.7743 45.8088 32.0242C46.0239 31.3252 45.714 30.6701 44.9919 30.3033C43.4804 29.5349 41.6772 29.92 39.8685 31.7395V31.7413Z" fill="white"/>
<path d="M59.5065 45.3618C58.7389 44.5953 57.6596 44.8271 57.1053 45.8692C56.2009 47.5755 55.1288 49.1487 53.765 50.5265C51.9053 52.4044 49.7374 53.7513 47.2048 54.5068C47.0371 54.5561 46.8693 54.6017 46.7053 54.6638C45.9395 54.9594 45.5803 55.5708 45.7444 56.2935C45.9158 57.049 46.5667 57.5253 47.3799 57.3848C48.5905 57.175 49.7337 56.7224 50.8241 56.173C54.7806 54.182 57.6541 51.1142 59.6396 47.1813C59.9715 46.5225 59.9861 45.9002 59.5047 45.36L59.5065 45.3618Z" fill="white"/>
<path d="M87.2979 32.8513V37.1631C85.7841 38.7449 83.6751 39.5358 80.9707 39.5358C78.2663 39.5358 76.0126 38.6343 74.2097 36.8314C72.4237 35.0114 71.5308 32.5877 71.5308 29.5601C71.5308 26.5155 72.4407 24.1003 74.2607 22.3144C76.0806 20.5114 78.3343 19.61 81.0217 19.61C83.7261 19.61 85.8182 20.3158 87.2979 21.7276V25.8607H85.9712L84.7211 21.8041C83.7856 20.9707 82.5525 20.554 81.0217 20.554C79.0827 20.554 77.5094 21.3279 76.3017 22.8757C75.0941 24.4065 74.4903 26.5921 74.4903 29.4326C74.4903 32.256 75.0686 34.4757 76.2252 36.0915C77.3988 37.7073 78.9636 38.5152 80.9196 38.5152C82.5014 38.5152 83.8026 38.039 84.8231 37.0865L86.0988 32.8513H87.2979ZM90.0996 19.8651H97.8556V20.8091L95.6104 21.3449L100.458 29.6622L104.923 21.4214L102.703 20.7836V19.8651H108.954V20.7836L106.683 21.4724L101.019 30.8103V37.4692L103.647 38.056V39H95.8911V38.056L98.3403 37.4947V31.1675L92.5489 21.4469L90.0996 20.8091V19.8651ZM112.011 19.8651H118.798C120.532 19.8651 122.055 20.0267 123.364 20.3499C124.674 20.656 125.839 21.1748 126.86 21.9062C127.897 22.6205 128.68 23.6156 129.207 24.8912C129.751 26.1669 130.023 27.7147 130.023 29.5346C130.023 31.3545 129.751 32.8938 129.207 34.1525C128.663 35.4111 127.855 36.3892 126.783 37.0865C125.712 37.7669 124.495 38.2601 123.135 38.5663C121.791 38.8554 120.192 39 118.338 39H112.011V38.056L114.537 37.4692V21.4214L112.011 20.8091V19.8651ZM117.216 37.9284H118.466C121.408 37.9284 123.577 37.2991 124.972 36.0405C126.366 34.7818 127.064 32.6217 127.064 29.5601C127.064 26.4815 126.409 24.2789 125.099 22.9522C123.79 21.6085 121.723 20.9367 118.9 20.9367H117.216V37.9284ZM133.862 19.8651H147.919V24.432H146.593L145.598 20.9622H139.066V28.5906H143.99L144.679 26.371H145.623V31.6522H144.679L143.99 29.7132H139.066V37.9029H146.057L147.052 34.4587H148.404V39H133.862V38.056L136.387 37.4692V21.4214L133.862 20.8091V19.8651ZM165.324 19.8651H171.601V20.8091L169.1 21.4469V39H167.314L155.374 21.498V37.4947L157.875 38.056V39H151.726V38.056L154.099 37.4947V21.4724L151.726 20.8091V19.8651H157.415L167.825 34.9689V21.4724L165.324 20.8091V19.8651ZM179.178 39V38.056L181.652 37.4692V20.9622H176.984L175.989 24.6871H174.662V19.8651H191.398V24.6871H190.072L189.077 20.9622H184.331V37.4947L186.934 38.056V39H179.178ZM194.455 19.8651H202.211V20.8091L199.66 21.3959V37.4947L202.211 38.056V39H194.455V38.056L196.981 37.4692V21.4214L194.455 20.8091V19.8651Z" fill="white"/>
<path d="M77.7965 58V57.6128L78.8221 57.3721V50.8L75.9756 58H75.3372L72.4907 50.8V57.3721L73.5372 57.6128V58H70.9418V57.6128L71.9465 57.3721V50.8105L71.057 50.5384V50.1512H73.307L75.9546 56.7023L78.5291 50.1512H80.9988V50.5384L79.9105 50.7895V57.3721L80.9779 57.6128V58H77.7965ZM87.6089 58H85.767V56.943C85.4391 57.7105 84.8635 58.0942 84.0402 58.0942C83.4891 58.0942 83.0705 57.9756 82.7844 57.7384C82.4984 57.4942 82.3554 57.1558 82.3554 56.7233C82.3554 56.1093 82.624 55.6698 83.1612 55.4047C83.7054 55.1326 84.567 54.986 85.7461 54.9651V54.5151C85.7461 54.0198 85.6449 53.6849 85.4426 53.5105C85.2402 53.3291 84.9402 53.2384 84.5426 53.2384C84.1449 53.2384 83.7995 53.3291 83.5065 53.5105L83.1612 54.5465H82.774V53.364C82.9484 53.2174 83.1891 53.0953 83.4961 52.9977C83.803 52.893 84.1379 52.8407 84.5007 52.8407C85.2402 52.8407 85.7949 52.9837 86.1647 53.2698C86.5414 53.5488 86.7298 54.0477 86.7298 54.7663V57.3721L87.6089 57.6128V58ZM84.3123 57.6547C84.7589 57.6547 85.1077 57.4837 85.3589 57.1419C85.617 56.793 85.7461 56.1895 85.7461 55.3314C84.5461 55.3314 83.8135 55.5163 83.5484 55.886C83.4228 56.0605 83.36 56.3186 83.36 56.6605C83.36 57.0023 83.4333 57.2535 83.5798 57.414C83.7333 57.5744 83.9775 57.6547 84.3123 57.6547ZM88.551 52.9244H90.2464V57.4035L90.9789 57.6128V58H88.4987V57.6128L89.2627 57.3826V53.4267L88.551 53.3012V52.9244ZM89.8487 50.1512L91.4708 51.8674H91.0522L89.6708 51.0826L88.3731 51.8674H87.965L89.4929 50.1512H89.8487ZM93.4829 52.9244H95.0108V53.364H93.4829V56.6081C93.4829 57.0198 93.5317 57.3058 93.6294 57.4663C93.7271 57.6198 93.8841 57.6965 94.1003 57.6965C94.3166 57.6965 94.6096 57.6442 94.9794 57.5395V57.9267C94.491 58.0593 94.0934 58.1256 93.7864 58.1256C92.9352 58.1256 92.5096 57.6128 92.5096 56.5872V53.364H91.6096V52.9244H92.5096V51.8465L93.4829 51.2919V52.9244ZM95.7483 52.9244H97.4855V54.4105C97.625 53.9919 97.8413 53.643 98.1343 53.364C98.4273 53.0779 98.7831 52.9349 99.2017 52.9349C99.4599 52.9349 99.7704 53.0291 100.133 53.2174V54.4733H99.725L99.4006 53.6151C99.268 53.5453 99.118 53.5105 98.9506 53.5105C98.6436 53.5105 98.3331 53.6919 98.0192 54.0547C97.7122 54.4105 97.5587 54.7942 97.5587 55.2058V57.393L98.3331 57.6128V58H95.7692V57.6128L96.5645 57.393V53.4477L95.7483 53.3012V52.9244ZM100.713 52.9244H102.408V57.4035L103.141 57.6128V58H100.66V57.6128L101.424 57.3826V53.4267L100.713 53.3012V52.9244ZM101.058 50.6953C101.058 50.507 101.117 50.3605 101.236 50.2558C101.361 50.1442 101.525 50.0884 101.728 50.0884C101.937 50.0884 102.105 50.1442 102.23 50.2558C102.356 50.3605 102.418 50.507 102.418 50.6953C102.418 50.8767 102.359 51.0233 102.241 51.1349C102.122 51.2465 101.955 51.3023 101.738 51.3023C101.529 51.3023 101.361 51.25 101.236 51.1453C101.117 51.0337 101.058 50.8837 101.058 50.6953ZM108.041 56.5035C108.041 56.9709 107.867 57.3477 107.518 57.6337C107.169 57.9128 106.632 58.0523 105.906 58.0523C105.188 58.0523 104.626 57.8605 104.221 57.4767V56.2628H104.629L104.933 57.2884C105.177 57.5326 105.568 57.6547 106.105 57.6547C106.482 57.6547 106.768 57.5709 106.963 57.4035C107.158 57.236 107.256 57.0337 107.256 56.7965C107.256 56.5593 107.155 56.3744 106.953 56.2419C106.75 56.1093 106.349 55.9488 105.749 55.7605C105.156 55.5651 104.741 55.3628 104.504 55.1535C104.267 54.9442 104.148 54.6337 104.148 54.2221C104.148 53.8035 104.319 53.4581 104.661 53.186C105.003 52.914 105.505 52.7779 106.168 52.7779C106.831 52.7779 107.364 52.9349 107.769 53.2488V54.4523H107.361L107.036 53.4477C106.806 53.2663 106.499 53.1756 106.115 53.1756C105.355 53.1756 104.975 53.4477 104.975 53.9919C104.975 54.1942 105.083 54.3721 105.299 54.5256C105.522 54.6721 105.927 54.836 106.513 55.0174C107.099 55.1988 107.5 55.4047 107.717 55.6349C107.933 55.8581 108.041 56.1477 108.041 56.5035ZM113.532 56.2314V57.4244C113.135 57.8779 112.493 58.1047 111.607 58.1047C110.728 58.1047 110.075 57.8744 109.65 57.414C109.224 56.9465 109.011 56.3012 109.011 55.4779C109.011 54.6547 109.235 54.0093 109.681 53.5419C110.135 53.0674 110.742 52.8302 111.502 52.8302C111.956 52.8302 112.332 52.914 112.632 53.0814C112.939 53.2488 113.159 53.4721 113.292 53.7512C113.501 54.2116 113.606 54.6965 113.606 55.2058H110.058C110.058 55.9942 110.149 56.5942 110.33 57.0058C110.539 57.4733 110.951 57.707 111.565 57.707C111.781 57.707 111.987 57.6791 112.182 57.6233C112.385 57.5605 112.531 57.5012 112.622 57.4453C112.713 57.3895 112.758 57.3547 112.758 57.3407L113.145 56.2314H113.532ZM111.481 53.2384C110.888 53.2384 110.483 53.5105 110.267 54.0547C110.163 54.2988 110.1 54.5674 110.079 54.8605H112.695C112.695 53.7791 112.29 53.2384 111.481 53.2384ZM114.87 52.9244H116.607V54.4105C116.746 53.9919 116.963 53.643 117.256 53.364C117.549 53.0779 117.904 52.9349 118.323 52.9349C118.581 52.9349 118.892 53.0291 119.254 53.2174V54.4733H118.846L118.522 53.6151C118.389 53.5453 118.239 53.5105 118.072 53.5105C117.765 53.5105 117.454 53.6919 117.141 54.0547C116.834 54.4105 116.68 54.7942 116.68 55.2058V57.393L117.454 57.6128V58H114.891V57.6128L115.686 57.393V53.4477L114.87 53.3012V52.9244ZM123.247 50.1512H126.428V50.5384L125.392 50.7791V57.5395H128.071L128.48 56.0221H129.024V58H123.247V57.6128L124.293 57.3721V50.7895L123.247 50.5384V50.1512ZM129.074 52.3174V49.6802H130.403L129.566 52.3174H129.074ZM132.016 52.9244H133.711V57.4035L134.444 57.6128V58H131.964V57.6128L132.728 57.3826V53.4267L132.016 53.3012V52.9244ZM132.361 50.6953C132.361 50.507 132.421 50.3605 132.539 50.2558C132.665 50.1442 132.829 50.0884 133.031 50.0884C133.24 50.0884 133.408 50.1442 133.533 50.2558C133.659 50.3605 133.722 50.507 133.722 50.6953C133.722 50.8767 133.663 51.0233 133.544 51.1349C133.425 51.2465 133.258 51.3023 133.042 51.3023C132.832 51.3023 132.665 51.25 132.539 51.1453C132.421 51.0337 132.361 50.8837 132.361 50.6953ZM138.643 50.1512H140.401V57.393L141.291 57.6128V58H139.47V56.807C139.219 57.6721 138.622 58.1047 137.68 58.1047C137.025 58.1047 136.494 57.8779 136.09 57.4244C135.692 56.9709 135.493 56.3291 135.493 55.4988C135.493 54.6616 135.692 54.0093 136.09 53.5419C136.494 53.0744 137.021 52.8407 137.67 52.8407C138.137 52.8407 138.525 52.9523 138.832 53.1756C139.146 53.3988 139.344 53.6919 139.428 54.0547V50.6849L138.643 50.5279V50.1512ZM137.848 53.3116C136.983 53.3116 136.55 54.0337 136.55 55.4779C136.55 56.9151 136.986 57.6337 137.858 57.6337C138.326 57.6337 138.709 57.4384 139.009 57.0477C139.316 56.657 139.47 56.1337 139.47 55.4779C139.47 54.8221 139.316 54.2988 139.009 53.9081C138.709 53.5105 138.322 53.3116 137.848 53.3116ZM146.45 56.2314V57.4244C146.053 57.8779 145.411 58.1047 144.525 58.1047C143.646 58.1047 142.993 57.8744 142.568 57.414C142.142 56.9465 141.93 56.3012 141.93 55.4779C141.93 54.6547 142.153 54.0093 142.599 53.5419C143.053 53.0674 143.66 52.8302 144.42 52.8302C144.874 52.8302 145.25 52.914 145.55 53.0814C145.857 53.2488 146.077 53.4721 146.21 53.7512C146.419 54.2116 146.524 54.6965 146.524 55.2058H142.976C142.976 55.9942 143.067 56.5942 143.248 57.0058C143.457 57.4733 143.869 57.707 144.483 57.707C144.699 57.707 144.905 57.6791 145.1 57.6233C145.303 57.5605 145.449 57.5012 145.54 57.4453C145.631 57.3895 145.676 57.3547 145.676 57.3407L146.063 56.2314H146.45ZM144.399 53.2384C143.806 53.2384 143.402 53.5105 143.185 54.0547C143.081 54.2988 143.018 54.5674 142.997 54.8605H145.613C145.613 53.7791 145.209 53.2384 144.399 53.2384ZM147.861 52.914H149.556V54.3895C149.835 53.357 150.456 52.8407 151.419 52.8407C151.984 52.8407 152.403 53.0151 152.675 53.364C152.947 53.7058 153.083 54.1802 153.083 54.7872V57.3826L153.889 57.6128V58H151.409V57.6128L152.11 57.4035V54.9128C152.11 54.3477 152.033 53.943 151.88 53.6988C151.733 53.4547 151.499 53.3326 151.178 53.3326C150.683 53.3326 150.299 53.5698 150.027 54.0442C149.762 54.5116 149.63 55.2163 149.63 56.1581V57.4035L150.362 57.6128V58H147.861V57.6128L148.635 57.393V53.4372L147.861 53.2907V52.914ZM156.447 52.9244H157.975V53.364H156.447V56.6081C156.447 57.0198 156.496 57.3058 156.594 57.4663C156.692 57.6198 156.848 57.6965 157.065 57.6965C157.281 57.6965 157.574 57.6442 157.944 57.5395V57.9267C157.455 58.0593 157.058 58.1256 156.751 58.1256C155.9 58.1256 155.474 57.6128 155.474 56.5872V53.364H154.574V52.9244H155.474V51.8465L156.447 51.2919V52.9244ZM158.608 52.9244H160.303V57.4035L161.036 57.6128V58H158.556V57.6128L159.32 57.3826V53.4267L158.608 53.3012V52.9244ZM158.953 50.6953C158.953 50.507 159.013 50.3605 159.131 50.2558C159.257 50.1442 159.421 50.0884 159.623 50.0884C159.832 50.0884 160 50.1442 160.125 50.2558C160.251 50.3605 160.314 50.507 160.314 50.6953C160.314 50.8767 160.255 51.0233 160.136 51.1349C160.017 51.2465 159.85 51.3023 159.634 51.3023C159.424 51.3023 159.257 51.25 159.131 51.1453C159.013 51.0337 158.953 50.8837 158.953 50.6953ZM163.54 52.9244H165.068V53.364H163.54V56.6081C163.54 57.0198 163.589 57.3058 163.686 57.4663C163.784 57.6198 163.941 57.6965 164.157 57.6965C164.374 57.6965 164.667 57.6442 165.036 57.5395V57.9267C164.548 58.0593 164.15 58.1256 163.843 58.1256C162.992 58.1256 162.567 57.6128 162.567 56.5872V53.364H161.667V52.9244H162.567V51.8465L163.54 51.2919V52.9244ZM170.007 56.2314V57.4244C169.609 57.8779 168.968 58.1047 168.082 58.1047C167.203 58.1047 166.55 57.8744 166.125 57.414C165.699 56.9465 165.486 56.3012 165.486 55.4779C165.486 54.6547 165.709 54.0093 166.156 53.5419C166.609 53.0674 167.216 52.8302 167.977 52.8302C168.43 52.8302 168.807 52.914 169.107 53.0814C169.414 53.2488 169.634 53.4721 169.766 53.7512C169.976 54.2116 170.08 54.6965 170.08 55.2058H166.533C166.533 55.9942 166.623 56.5942 166.805 57.0058C167.014 57.4733 167.426 57.707 168.04 57.707C168.256 57.707 168.462 57.6791 168.657 57.6233C168.859 57.5605 169.006 57.5012 169.097 57.4453C169.187 57.3895 169.233 57.3547 169.233 57.3407L169.62 56.2314H170.007ZM167.956 53.2384C167.363 53.2384 166.958 53.5105 166.742 54.0547C166.637 54.2988 166.575 54.5674 166.554 54.8605H169.17C169.17 53.7791 168.765 53.2384 167.956 53.2384ZM166.836 51.6791H166.501L167.883 50.1512H169.285L166.836 51.6791ZM180.755 55.4779V57.2465C180.134 57.8953 179.269 58.2198 178.16 58.2198C177.051 58.2198 176.126 57.85 175.387 57.1105C174.654 56.364 174.288 55.3698 174.288 54.1279C174.288 52.8791 174.661 51.8884 175.408 51.1558C176.154 50.4163 177.078 50.0465 178.181 50.0465C179.29 50.0465 180.148 50.336 180.755 50.9151V52.6105H180.211L179.698 50.9465C179.314 50.6047 178.809 50.4337 178.181 50.4337C177.385 50.4337 176.74 50.7512 176.245 51.386C175.749 52.014 175.502 52.9105 175.502 54.0756C175.502 55.2337 175.739 56.1442 176.213 56.807C176.695 57.4698 177.337 57.8012 178.139 57.8012C178.788 57.8012 179.321 57.6058 179.74 57.2151L180.263 55.4779H180.755ZM182.281 50.1512H184.029V57.3826L184.876 57.6128V58H182.218V57.6128L183.035 57.393V50.6535L182.281 50.5279V50.1512ZM189.73 55.4988C189.73 54.7453 189.615 54.1872 189.384 53.8244C189.154 53.4547 188.777 53.2698 188.254 53.2698C187.738 53.2698 187.354 53.4477 187.103 53.8035C186.859 54.1523 186.737 54.714 186.737 55.4884C186.737 56.2628 186.859 56.8209 187.103 57.1628C187.347 57.4977 187.72 57.6651 188.223 57.6651C188.732 57.6651 189.109 57.4942 189.353 57.1523C189.604 56.8035 189.73 56.2523 189.73 55.4988ZM185.68 55.4988C185.68 54.6756 185.913 54.0267 186.381 53.5523C186.848 53.0709 187.466 52.8302 188.233 52.8302C189.008 52.8302 189.625 53.064 190.085 53.5314C190.546 53.9988 190.776 54.6512 190.776 55.4884C190.776 56.3256 190.546 56.9709 190.085 57.4244C189.625 57.8709 189.004 58.0942 188.223 58.0942C187.448 58.0942 186.831 57.8674 186.37 57.414C185.91 56.9605 185.68 56.3221 185.68 55.4988ZM191.718 52.9244H193.456V56.0535C193.456 56.6047 193.525 56.9953 193.665 57.2256C193.811 57.4558 194.049 57.5709 194.377 57.5709C194.865 57.5709 195.249 57.3407 195.528 56.8802C195.807 56.4198 195.946 55.7151 195.946 54.7663V53.4477L195.182 53.3116V52.9244H196.92V57.3721L197.746 57.6128V58H196.009V56.5872C195.828 57.0826 195.573 57.4628 195.245 57.7279C194.924 57.986 194.572 58.1151 194.188 58.1151C193.044 58.1151 192.472 57.4872 192.472 56.2314V53.4477L191.718 53.3116V52.9244ZM201.7 50.1512H203.458V57.393L204.347 57.6128V58H202.526V56.807C202.275 57.6721 201.679 58.1047 200.737 58.1047C200.081 58.1047 199.551 57.8779 199.146 57.4244C198.748 56.9709 198.55 56.3291 198.55 55.4988C198.55 54.6616 198.748 54.0093 199.146 53.5419C199.551 53.0744 200.078 52.8407 200.726 52.8407C201.194 52.8407 201.581 52.9523 201.888 53.1756C202.202 53.3988 202.401 53.6919 202.485 54.0547V50.6849L201.7 50.5279V50.1512ZM200.904 53.3116C200.039 53.3116 199.607 54.0337 199.607 55.4779C199.607 56.9151 200.043 57.6337 200.915 57.6337C201.382 57.6337 201.766 57.4384 202.066 57.0477C202.373 56.657 202.526 56.1337 202.526 55.4779C202.526 54.8221 202.373 54.2988 202.066 53.9081C201.766 53.5105 201.379 53.3116 200.904 53.3116Z" fill="#DCDFE4"/>
</g>
<defs>
<clipPath id="clip0_3872_4189">
<rect width="176" height="50" fill="white" transform="translate(29 12)"/>
</clipPath>
</defs>
</svg>
